<?xml version="1.0" encoding="iso-8859-1"?>
<!-- Generator: Adobe Illustrator 16.0.0, SVG Export Plug-In . SVG Version: 6.00 Build 0)  -->
<!DOCTYPE svg PUBLIC "-//W3C//DTD SVG 1.1//EN" "http://www.w3.org/Graphics/SVG/1.1/DTD/svg11.dtd">
<svg xmlns="http://www.w3.org/2000/svg" xmlns:xlink="http://www.w3.org/1999/xlink" version="1.1" id="Capa_1" x="0px" y="0px" width="512px" height="512px" viewBox="0 0 392.186 392.186" style="enable-background:new 0 0 392.186 392.186;" xml:space="preserve">
<g>
	<g>
		<g>
			<path d="M368.62,17.951H23.568C10.57,17.951,0,28.524,0,41.52v309.146c0,12.996,10.57,23.568,23.568,23.568h345.053     c12.994,0,23.564-10.572,23.564-23.568V41.52C392.188,28.525,381.614,17.951,368.62,17.951z M297.56,57.528     c0-4.806,3.896-8.703,8.701-8.703h8.703c4.808,0,8.701,3.896,8.701,8.703v9.863c0,4.806-3.896,8.702-8.701,8.702h-8.703     c-4.805,0-8.701-3.896-8.701-8.702V57.528z M257.093,57.528c0-4.806,3.898-8.703,8.703-8.703h8.701     c4.805,0,8.703,3.896,8.703,8.703v9.863c0,4.806-3.898,8.702-8.703,8.702h-8.701c-4.805,0-8.703-3.896-8.703-8.702V57.528z      M363.903,345.951H28.282V102.235h335.621V345.951L363.903,345.951z M364.132,67.391c0,4.806-3.896,8.702-8.701,8.702h-8.703     c-4.809,0-8.702-3.896-8.702-8.702v-9.863c0-4.806,3.896-8.703,8.702-8.703h8.703c4.806,0,8.701,3.896,8.701,8.703V67.391z" fill="#FFFFFF"/>
			<path d="M86.593,183.657c7.383,0,14.072-3.017,18.906-7.881l65.775,25.743c1.684,13.096,12.895,23.25,26.439,23.25     c14.703,0,26.666-11.961,26.666-26.666c0-0.64-0.031-1.271-0.074-1.899l63.488-37.044c4.723,4.243,10.965,6.831,17.799,6.831     c14.705,0,26.666-11.962,26.666-26.667s-11.961-26.667-26.666-26.667c-14.703,0-26.666,11.963-26.666,26.667     c0,1.357,0.104,2.69,0.301,3.994l-62.282,36.34c-4.854-5.062-11.679-8.222-19.229-8.222c-9.422,0-17.713,4.916-22.455,12.313     l-62.117-24.313c0.074-0.807,0.117-1.622,0.117-2.447c0-14.704-11.961-26.667-26.666-26.667     c-14.703,0-26.666,11.963-26.666,26.667S71.89,183.657,86.593,183.657z M305.593,130.656c4.777,0,8.666,3.888,8.666,8.667     c0,4.779-3.889,8.667-8.666,8.667c-4.776,0-8.666-3.888-8.666-8.667C296.927,134.544,300.815,130.656,305.593,130.656z      M197.714,189.436c4.778,0,8.666,3.888,8.666,8.667c0,4.778-3.888,8.666-8.666,8.666c-4.779,0-8.666-3.888-8.666-8.666     C189.048,193.324,192.935,189.436,197.714,189.436z M86.593,148.323c4.777,0,8.666,3.888,8.666,8.667     c0,4.779-3.889,8.667-8.666,8.667c-4.777,0-8.666-3.888-8.666-8.667C77.927,152.211,81.816,148.323,86.593,148.323z" fill="#FFFFFF"/>
			<g>
				<path d="M305.593,180.99c-6.496,0-12.809-1.72-18.35-4.932l-53.07,30.966c-1.832,17.157-12.39,29.799-30.232,32.553v82.747      h119.945V176.08C318.497,179.197,312.253,180.99,305.593,180.99z" fill="#FFFFFF"/>
				<path d="M162.677,213.893l-55.35-21.664c-6.061,4.179-13.225,6.427-20.734,6.427c-6.66,0-12.904-1.793-18.293-4.91v128.576      h124.447v-82.688C179.659,237.803,166.472,228.948,162.677,213.893z" fill="#FFFFFF"/>
			</g>
		</g>
	</g>
</g>
<g>
</g>
<g>
</g>
<g>
</g>
<g>
</g>
<g>
</g>
<g>
</g>
<g>
</g>
<g>
</g>
<g>
</g>
<g>
</g>
<g>
</g>
<g>
</g>
<g>
</g>
<g>
</g>
<g>
</g>
</svg>
