<?xml version="1.0" encoding="iso-8859-1"?>
<!-- Generator: Adobe Illustrator 19.0.0, SVG Export Plug-In . SVG Version: 6.00 Build 0)  -->
<svg xmlns="http://www.w3.org/2000/svg" xmlns:xlink="http://www.w3.org/1999/xlink" version="1.1" id="Layer_1" x="0px" y="0px" viewBox="0 0 512 512" style="enable-background:new 0 0 512 512;" xml:space="preserve" width="512px" height="512px">
<g>
	<g>
		<g>
			<path d="M289.604,460.8H240c-4.719,0-8.533,3.823-8.533,8.533s3.814,8.533,8.533,8.533h49.604c4.71,0,8.525-3.823,8.525-8.533     S294.315,460.8,289.604,460.8z" fill="#FFFFFF"/>
			<path d="M119.467,290.133c0-4.71-3.814-8.533-8.533-8.533c-4.719,0-8.533,3.823-8.533,8.533c-4.719,0-8.533,3.823-8.533,8.533     s3.814,8.533,8.533,8.533c0,4.71,3.814,8.533,8.533,8.533c4.719,0,8.533-3.823,8.533-8.533c4.719,0,8.533-3.823,8.533-8.533     S124.186,290.133,119.467,290.133z" fill="#FFFFFF"/>
			<path d="M349.611,433.126c-0.956-3.797-4.361-6.46-8.277-6.46h-153.6c-3.917,0-7.322,2.662-8.277,6.46l-17.067,68.267     c-0.64,2.552-0.068,5.257,1.553,7.322c1.613,2.074,4.096,3.285,6.724,3.285H358.4c2.628,0,5.111-1.212,6.724-3.285     c1.621-2.065,2.193-4.77,1.553-7.322L349.611,433.126z M181.598,494.933l12.8-51.2h140.271l12.8,51.2H181.598z" fill="#FFFFFF"/>
			<path d="M76.8,119.467h-8.533v-8.533c0-4.71-3.814-8.533-8.533-8.533s-8.533,3.823-8.533,8.533v8.533h-8.533     c-4.719,0-8.533,3.823-8.533,8.533s3.814,8.533,8.533,8.533H51.2v8.533c0,4.71,3.814,8.533,8.533,8.533s8.533-3.823,8.533-8.533     v-8.533H76.8c4.719,0,8.533-3.823,8.533-8.533S81.519,119.467,76.8,119.467z" fill="#FFFFFF"/>
			<path d="M366.933,68.267h-60.553l-34.33-63.778c-2.987-5.53-12.049-5.53-15.036,0l-34.33,63.778h-60.553     c-3.439,0-6.554,2.074-7.876,5.248c-1.323,3.174-0.606,6.844,1.809,9.293l51.61,52.13l-27.947,75.435     c-1.237,3.345-0.265,7.108,2.449,9.438c1.579,1.357,3.567,2.057,5.555,2.057c1.417,0,2.85-0.358,4.139-1.075l72.661-40.363     l72.661,40.363c3.089,1.724,6.946,1.348,9.66-0.956c2.714-2.295,3.712-6.033,2.509-9.378l-27.255-76.023l50.901-51.644     c2.415-2.449,3.123-6.11,1.801-9.284C373.478,70.332,370.372,68.267,366.933,68.267z M306.193,126.276     c-2.313,2.338-3.072,5.786-1.963,8.866l21.41,59.708l-56.969-31.642c-1.28-0.717-2.714-1.075-4.139-1.075     s-2.859,0.358-4.139,1.075l-56.653,31.462l21.828-58.906c1.152-3.115,0.393-6.613-1.937-8.969l-41.054-41.464h45.201     c3.149,0,6.025-1.724,7.518-4.489l29.235-54.306l29.235,54.306c1.493,2.765,4.369,4.489,7.518,4.489h45.252L306.193,126.276z" fill="#FFFFFF"/>
			<path d="M469.333,34.133h-25.6v-25.6c0-4.71-3.814-8.533-8.533-8.533s-8.533,3.823-8.533,8.533v25.6h-25.6     c-4.719,0-8.533,3.823-8.533,8.533c0,4.71,3.814,8.533,8.533,8.533h25.6v25.6c0,4.71,3.814,8.533,8.533,8.533     s8.533-3.823,8.533-8.533V51.2h25.6c4.719,0,8.533-3.823,8.533-8.533C477.867,37.956,474.052,34.133,469.333,34.133z" fill="#FFFFFF"/>
			<path d="M238.942,409.6c4.292,0,7.996-3.226,8.474-7.595c0.085-0.768,8.585-77.952,8.585-137.472v-51.2     c0-4.71-3.814-8.533-8.533-8.533s-8.533,3.823-8.533,8.533v51.2c0,58.556-8.397,134.827-8.482,135.595     c-0.521,4.676,2.859,8.9,7.543,9.421C238.31,409.583,238.626,409.6,238.942,409.6z" fill="#FFFFFF"/>
			<path d="M281.6,204.8c-4.719,0-8.533,3.823-8.533,8.533v51.2c0,59.52,8.499,136.704,8.585,137.472     c0.486,4.369,4.181,7.595,8.474,7.595c0.307,0,0.631-0.017,0.947-0.051c4.685-0.521,8.064-4.745,7.543-9.421     c-0.085-0.768-8.482-77.039-8.482-135.595v-51.2C290.133,208.623,286.319,204.8,281.6,204.8z" fill="#FFFFFF"/>
		</g>
	</g>
</g>
<g>
</g>
<g>
</g>
<g>
</g>
<g>
</g>
<g>
</g>
<g>
</g>
<g>
</g>
<g>
</g>
<g>
</g>
<g>
</g>
<g>
</g>
<g>
</g>
<g>
</g>
<g>
</g>
<g>
</g>
</svg>
