<svg id="Слой_1" data-name="Слой 1" xmlns="http://www.w3.org/2000/svg" viewBox="0 0 200 200"><defs><style>.cls-1{fill:#fff;}</style></defs><title>cpc</title><path class="cls-1" d="M90.7,155.1a1.2,1.2,0,0,0,.3,1.34,87.8,87.8,0,0,1,7.77,8.16c3,3.79,10,15.54,10.08,15.61,1.07,2,3.95,7.51,4.42,8.91a18.51,18.51,0,0,1,.44,4.89,1.24,1.24,0,0,0,.34.87,1.19,1.19,0,0,0,.86.36h27.2a1.2,1.2,0,0,0,1.19-1.07,24.62,24.62,0,0,0,0-4.33,8.67,8.67,0,0,1,2.14-6.07c1.87-2.42,2.56-7,2.58-7.16a.92.92,0,0,0,0-.17V156c0-.41-.08-5.3-3.71-6.42a9.19,9.19,0,0,0-5.79.28c-.12-1.47-.73-4.85-3.67-5.76a9.25,9.25,0,0,0-5.92.33c-.29-1.65-1.13-4.08-3.55-4.83a9.2,9.2,0,0,0-5.77.28V127.81c0-3.2-1.32-8.61-6.29-8.61-4.61,0-6.29,5.15-6.29,8.61v27c-2.3-2.25-6-5.4-8.95-5.62C93.28,148.86,90.8,154.85,90.7,155.1Zm7.22-3.47c2.72.21,7.25,4.62,9.13,6.68v3.62a1.2,1.2,0,1,0,2.4,0V127.81c0-1.61.71-6.22,3.89-6.22,3.78,0,3.89,5.58,3.89,6.22v30.42a1.2,1.2,0,0,0,2.4,0V142.49a7.29,7.29,0,0,1,5.05-.57c2,.62,2,4.09,2,4.15v13.39a1.2,1.2,0,0,0,2.4,0V147a7.29,7.29,0,0,1,5.05-.57c2,.62,2,4.09,2,4.14V161.2a1.2,1.2,0,0,0,2.4,0v-8.74a7.27,7.27,0,0,1,5.05-.57c2,.61,2,4.09,2,4.14v20.33c-.19,1.21-.89,4.39-2.09,6A11.12,11.12,0,0,0,140.9,190a25.14,25.14,0,0,1,.07,2.81H116.1a17,17,0,0,0-.57-4.48c-.61-1.84-4.17-8.53-4.61-9.33-.29-.49-7.17-12-10.29-15.93a84.47,84.47,0,0,0-7.37-7.82C94,154,95.61,151.45,97.91,151.63Z"/><path class="cls-1" d="M78.67,133.3a35,35,0,0,0,1.23,4l8.61-3.18a26.1,26.1,0,0,1-.9-3Z"/><path class="cls-1" d="M88.56,115.78,80,112.56a36,36,0,0,0-1.25,4l8.92,2.19A26.5,26.5,0,0,1,88.56,115.78Z"/><path class="cls-1" d="M86.93,126.53q0-.74,0-1.49c0-.55,0-1.1,0-1.64l-9.17-.57q-.07,1.09-.07,2.21t.06,2Z"/><path class="cls-1" d="M92.27,141a26,26,0,0,1-1.75-2.59l-7.91,4.67a35.48,35.48,0,0,0,2.36,3.5Z"/><path class="cls-1" d="M148.43,127.8l-9.16-.71a26.73,26.73,0,0,1-.43,3.1l9,1.79A35.33,35.33,0,0,0,148.43,127.8Z"/><path class="cls-1" d="M98,103.6l-5.31-7.5a35.89,35.89,0,0,0-3.29,2.63l6.15,6.82A26.78,26.78,0,0,1,98,103.6Z"/><path class="cls-1" d="M136.44,137.08l8.16,4.22c.54-1.05,1-2.14,1.47-3.23l-8.54-3.38A26.33,26.33,0,0,1,136.44,137.08Z"/><path class="cls-1" d="M92.37,109l-7.27-5.61a36.18,36.18,0,0,0-2.37,3.48l7.88,4.72A27.22,27.22,0,0,1,92.37,109Z"/><path class="cls-1" d="M133.24,108.21l7.05-5.88a35.37,35.37,0,0,0-2.9-3.07l-6.3,6.69A25.62,25.62,0,0,1,133.24,108.21Z"/><path class="cls-1" d="M132.44,95.35a35.49,35.49,0,0,0-3.67-2.09l-4.07,8.24a25.93,25.93,0,0,1,2.71,1.55Z"/><path class="cls-1" d="M122.86,91a35.63,35.63,0,0,0-4.12-.91l-1.45,9.07a26,26,0,0,1,3,.68Z"/><path class="cls-1" d="M139.22,122.4l9.14-.91a35.63,35.63,0,0,0-.67-4.17l-9,2A26.07,26.07,0,0,1,139.22,122.4Z"/><path class="cls-1" d="M104.94,100.11l-2.86-8.73a35.61,35.61,0,0,0-3.92,1.55l3.89,8.32A26.25,26.25,0,0,1,104.94,100.11Z"/><path class="cls-1" d="M112.62,98.81l-.17-9.18a35.6,35.6,0,0,0-4.2.33l1.25,9.1A26.7,26.7,0,0,1,112.62,98.81Z"/><path class="cls-1" d="M137.3,114.86l8.47-3.55a35,35,0,0,0-1.87-3.79l-8,4.55A25.52,25.52,0,0,1,137.3,114.86Z"/><path class="cls-1" d="M18.34,64.07a34.72,34.72,0,0,0,1.22,4l8.54-3.16a25.88,25.88,0,0,1-.89-3Z"/><path class="cls-1" d="M28.16,46.7l-8.53-3.2a35.65,35.65,0,0,0-1.24,4l8.85,2.17A26.29,26.29,0,0,1,28.16,46.7Z"/><path class="cls-1" d="M26.53,57.36q0-.74,0-1.48c0-.54,0-1.09,0-1.63l-9.09-.56q-.07,1.09-.07,2.19t.05,2Z"/><path class="cls-1" d="M31.83,71.68a25.76,25.76,0,0,1-1.73-2.57l-7.84,4.63a35.19,35.19,0,0,0,2.34,3.47Z"/><path class="cls-1" d="M87.54,58.62l-9.08-.7A26.51,26.51,0,0,1,78,61L87,62.77A35,35,0,0,0,87.54,58.62Z"/><path class="cls-1" d="M37.51,34.62l-5.26-7.44A35.59,35.59,0,0,0,29,29.8l6.1,6.77A26.57,26.57,0,0,1,37.51,34.62Z"/><path class="cls-1" d="M75.64,67.82,83.73,72c.54-1,1-2.12,1.46-3.21l-8.47-3.36A26.12,26.12,0,0,1,75.64,67.82Z"/><path class="cls-1" d="M31.93,40,24.72,34.4a35.88,35.88,0,0,0-2.35,3.45l7.82,4.68A27,27,0,0,1,31.93,40Z"/><path class="cls-1" d="M72.47,39.19l7-5.83a35.08,35.08,0,0,0-2.87-3l-6.25,6.63A25.42,25.42,0,0,1,72.47,39.19Z"/><path class="cls-1" d="M71.67,26.44A35.2,35.2,0,0,0,68,24.36l-4,8.17a25.71,25.71,0,0,1,2.69,1.53Z"/><path class="cls-1" d="M62.17,22.1a35.34,35.34,0,0,0-4.09-.91l-1.43,9a25.82,25.82,0,0,1,3,.67Z"/><path class="cls-1" d="M78.4,53.26l9.07-.9a35.34,35.34,0,0,0-.66-4.14l-8.89,2A25.85,25.85,0,0,1,78.4,53.26Z"/><path class="cls-1" d="M44.4,31.15l-2.84-8.66A35.32,35.32,0,0,0,37.67,24l3.85,8.26A26,26,0,0,1,44.4,31.15Z"/><path class="cls-1" d="M52,29.87l-.16-9.11a35.31,35.31,0,0,0-4.17.32l1.24,9A26.48,26.48,0,0,1,52,29.87Z"/><path class="cls-1" d="M76.5,45.78l8.4-3.53A34.76,34.76,0,0,0,83,38.5L75.13,43A25.31,25.31,0,0,1,76.5,45.78Z"/><path class="cls-1" d="M64.58,78.56l4.12,8.13a35.59,35.59,0,0,0,3.61-2.11L67.26,77A26.57,26.57,0,0,1,64.58,78.56Z"/><path class="cls-1" d="M31.71,40.14l-7.39-5.32c-.69,1-1.33,1.95-1.91,3l7.89,4.56A26.12,26.12,0,0,1,31.71,40.14Z"/><path class="cls-1" d="M70.88,74.09l6.32,6.56A35.88,35.88,0,0,0,80,77.58L73,71.8A27,27,0,0,1,70.88,74.09Z"/><path class="cls-1" d="M29.59,81.66a35.2,35.2,0,0,0,3.29,2.58l5.18-7.49a25.71,25.71,0,0,1-2.44-1.91Z"/><path class="cls-1" d="M38.35,87.34a35.34,35.34,0,0,0,3.91,1.49L45,80.14A25.82,25.82,0,0,1,42.1,79Z"/><path class="cls-1" d="M57.25,81l1.55,9a35.32,35.32,0,0,0,4.08-1l-2.61-8.73A26,26,0,0,1,57.25,81Z"/><path class="cls-1" d="M49.54,81.14l-1.17,9a35.31,35.31,0,0,0,4.17.29l.09-9.11A26.48,26.48,0,0,1,49.54,81.14Z"/><path class="cls-1" d="M52.51,75.17v-4.7a13.57,13.57,0,0,1-7.13-2.05l1.12-3.12a12.42,12.42,0,0,0,6.71,2c3.31,0,5.54-1.91,5.54-4.56s-1.82-4.14-5.26-5.54c-4.75-1.86-7.69-4-7.69-8.06,0-3.87,2.75-6.8,7-7.5v-4.7h2.89v4.52a12.41,12.41,0,0,1,6.05,1.63l-1.17,3.08a11.25,11.25,0,0,0-5.87-1.58c-3.59,0-4.94,2.14-4.94,4,0,2.42,1.72,3.63,5.77,5.31,4.8,2,7.22,4.38,7.22,8.52,0,3.68-2.56,7.13-7.36,7.92v4.84Z"/><path class="cls-1" d="M139.4,71.55a27.9,27.9,0,0,0,1,3.22l6.87-2.54a20.8,20.8,0,0,1-.72-2.38Z"/><path class="cls-1" d="M147.29,57.59,140.43,55a28.65,28.65,0,0,0-1,3.21L146.55,60A21.12,21.12,0,0,1,147.29,57.59Z"/><path class="cls-1" d="M146,66.16q0-.59,0-1.19c0-.44,0-.87,0-1.31l-7.31-.45q-.05.87-.05,1.76t0,1.6Z"/><path class="cls-1" d="M150.24,77.66a20.7,20.7,0,0,1-1.39-2.06l-6.3,3.72a28.28,28.28,0,0,0,1.88,2.79Z"/><path class="cls-1" d="M195,67.17l-7.3-.56a21.3,21.3,0,0,1-.34,2.47l7.18,1.43A28.15,28.15,0,0,0,195,67.17Z"/><path class="cls-1" d="M154.8,47.88l-4.23-6A28.6,28.6,0,0,0,148,44l4.9,5.44A21.35,21.35,0,0,1,154.8,47.88Z"/><path class="cls-1" d="M185.44,74.56l6.5,3.36c.43-.84.83-1.7,1.17-2.58l-6.81-2.7A21,21,0,0,1,185.44,74.56Z"/><path class="cls-1" d="M150.32,52.17l-5.8-4.47a28.83,28.83,0,0,0-1.89,2.77l6.28,3.76A21.69,21.69,0,0,1,150.32,52.17Z"/><path class="cls-1" d="M182.89,51.56l5.62-4.69a28.19,28.19,0,0,0-2.31-2.45l-5,5.33A20.42,20.42,0,0,1,182.89,51.56Z"/><path class="cls-1" d="M182.25,41.31a28.29,28.29,0,0,0-2.92-1.67l-3.24,6.56a20.66,20.66,0,0,1,2.16,1.23Z"/><path class="cls-1" d="M174.62,37.82a28.39,28.39,0,0,0-3.29-.73l-1.15,7.23a20.75,20.75,0,0,1,2.43.54Z"/><path class="cls-1" d="M187.66,62.86l7.29-.72a28.39,28.39,0,0,0-.53-3.32l-7.15,1.59A20.77,20.77,0,0,1,187.66,62.86Z"/><path class="cls-1" d="M160.34,45.09l-2.28-7a28.38,28.38,0,0,0-3.13,1.24L158,46A20.92,20.92,0,0,1,160.34,45.09Z"/><path class="cls-1" d="M166.45,44.07l-.13-7.32A28.37,28.37,0,0,0,163,37l1,7.25A21.28,21.28,0,0,1,166.45,44.07Z"/><path class="cls-1" d="M186.13,56.85,192.88,54a27.93,27.93,0,0,0-1.49-3L185,54.63A20.34,20.34,0,0,1,186.13,56.85Z"/><path class="cls-1" d="M176.55,83.18l3.31,6.53a28.6,28.6,0,0,0,2.9-1.69l-4.06-6.09A21.35,21.35,0,0,1,176.55,83.18Z"/><path class="cls-1" d="M150.14,52.32,144.2,48c-.55.77-1.07,1.57-1.54,2.38L149,54.09A21,21,0,0,1,150.14,52.32Z"/><path class="cls-1" d="M181.61,79.6l5.08,5.27A28.83,28.83,0,0,0,189,82.4l-5.66-4.64A21.69,21.69,0,0,1,181.61,79.6Z"/><path class="cls-1" d="M148.44,85.68a28.29,28.29,0,0,0,2.65,2.08l4.16-6a20.66,20.66,0,0,1-2-1.54Z"/><path class="cls-1" d="M155.48,90.24a28.39,28.39,0,0,0,3.14,1.2l2.2-7a20.75,20.75,0,0,1-2.32-.89Z"/><path class="cls-1" d="M170.67,85.13l1.24,7.21a28.38,28.38,0,0,0,3.27-.77l-2.09-7A20.92,20.92,0,0,1,170.67,85.13Z"/><path class="cls-1" d="M164.47,85.26l-.94,7.26a28.37,28.37,0,0,0,3.35.23l.07-7.32A21.28,21.28,0,0,1,164.47,85.26Z"/><path class="cls-1" d="M166.85,80.46V76.68A10.9,10.9,0,0,1,161.13,75l.9-2.51a10,10,0,0,0,5.39,1.61c2.66,0,4.45-1.54,4.45-3.67s-1.46-3.33-4.23-4.45c-3.82-1.49-6.18-3.22-6.18-6.47s2.21-5.46,5.65-6V49.74h2.32v3.63a10,10,0,0,1,4.86,1.31l-.94,2.47a9,9,0,0,0-4.72-1.27c-2.88,0-4,1.72-4,3.22,0,1.95,1.38,2.92,4.64,4.27,3.85,1.57,5.8,3.52,5.8,6.85,0,3-2.06,5.73-5.91,6.36v3.89Z"/><path class="cls-1" d="M93.74,31a21.07,21.07,0,0,0,.74,2.43l5.18-1.92a15.7,15.7,0,0,1-.54-1.8Z"/><path class="cls-1" d="M99.69,20.5l-5.18-1.94A21.63,21.63,0,0,0,93.76,21l5.37,1.32A16,16,0,0,1,99.69,20.5Z"/><path class="cls-1" d="M98.7,27q0-.45,0-.9c0-.33,0-.66,0-1l-5.52-.34q0,.66,0,1.33t0,1.2Z"/><path class="cls-1" d="M101.92,35.65a15.63,15.63,0,0,1-1.05-1.56l-4.76,2.81A21.35,21.35,0,0,0,97.53,39Z"/><path class="cls-1" d="M135.72,27.73l-5.51-.42a16.08,16.08,0,0,1-.26,1.86l5.42,1.08A21.26,21.26,0,0,0,135.72,27.73Z"/><path class="cls-1" d="M105.36,13.17l-3.19-4.51a21.59,21.59,0,0,0-2,1.58l3.7,4.1A16.12,16.12,0,0,1,105.36,13.17Z"/><path class="cls-1" d="M128.5,33.31l4.91,2.54c.33-.63.62-1.29.89-1.95l-5.14-2A15.84,15.84,0,0,1,128.5,33.31Z"/><path class="cls-1" d="M102,16.41,97.6,13a21.77,21.77,0,0,0-1.43,2.09L100.92,18A16.38,16.38,0,0,1,102,16.41Z"/><path class="cls-1" d="M126.58,15.94l4.25-3.54a21.29,21.29,0,0,0-1.74-1.85l-3.79,4A15.42,15.42,0,0,1,126.58,15.94Z"/><path class="cls-1" d="M126.09,8.2a21.36,21.36,0,0,0-2.21-1.26l-2.45,5a15.6,15.6,0,0,1,1.63.93Z"/><path class="cls-1" d="M120.33,5.57A21.44,21.44,0,0,0,117.85,5L117,10.48a15.67,15.67,0,0,1,1.83.41Z"/><path class="cls-1" d="M130.17,24.48l5.5-.55a21.44,21.44,0,0,0-.4-2.51l-5.4,1.2A15.69,15.69,0,0,1,130.17,24.48Z"/><path class="cls-1" d="M109.55,11.06l-1.72-5.25a21.43,21.43,0,0,0-2.36.93l2.34,5A15.8,15.8,0,0,1,109.55,11.06Z"/><path class="cls-1" d="M114.16,10.29l-.1-5.53a21.42,21.42,0,0,0-2.53.2l.75,5.48A16.07,16.07,0,0,1,114.16,10.29Z"/><path class="cls-1" d="M129,19.94l5.1-2.14A21.09,21.09,0,0,0,133,15.52l-4.8,2.74A15.36,15.36,0,0,1,129,19.94Z"/><path class="cls-1" d="M121.79,39.82l2.5,4.93a21.59,21.59,0,0,0,2.19-1.28l-3.06-4.6A16.12,16.12,0,0,1,121.79,39.82Z"/><path class="cls-1" d="M101.84,16.52l-4.49-3.23c-.42.58-.81,1.18-1.16,1.8L101,17.85A15.84,15.84,0,0,1,101.84,16.52Z"/><path class="cls-1" d="M125.61,37.11l3.84,4a21.77,21.77,0,0,0,1.72-1.86l-4.28-3.5A16.38,16.38,0,0,1,125.61,37.11Z"/><path class="cls-1" d="M100.56,41.71a21.36,21.36,0,0,0,2,1.57l3.14-4.55a15.6,15.6,0,0,1-1.48-1.16Z"/><path class="cls-1" d="M105.87,45.15a21.44,21.44,0,0,0,2.37.91l1.66-5.27a15.67,15.67,0,0,1-1.75-.67Z"/><path class="cls-1" d="M117.34,41.3l.94,5.45a21.43,21.43,0,0,0,2.47-.58l-1.58-5.3A15.8,15.8,0,0,1,117.34,41.3Z"/><path class="cls-1" d="M112.66,41.39,112,46.87a21.42,21.42,0,0,0,2.53.18l.05-5.53A16.07,16.07,0,0,1,112.66,41.39Z"/><path class="cls-1" d="M114.46,35.91V33.05a8.23,8.23,0,0,1-4.32-1.24l.68-1.89a7.54,7.54,0,0,0,4.07,1.22c2,0,3.36-1.16,3.36-2.77s-1.1-2.51-3.19-3.36c-2.88-1.13-4.66-2.43-4.66-4.89s1.67-4.13,4.27-4.55V12.71h1.75v2.74a7.53,7.53,0,0,1,3.67,1l-.71,1.87a6.82,6.82,0,0,0-3.56-1c-2.18,0-3,1.3-3,2.43,0,1.47,1,2.21,3.5,3.22,2.91,1.19,4.38,2.66,4.38,5.17a4.91,4.91,0,0,1-4.46,4.8v2.94Z"/><path class="cls-1" d="M5.52,124.52a18.84,18.84,0,0,0,.66,2.18L10.82,125a14,14,0,0,1-.49-1.61Z"/><path class="cls-1" d="M10.85,115.09l-4.63-1.74a19.35,19.35,0,0,0-.67,2.17l4.8,1.18A14.27,14.27,0,0,1,10.85,115.09Z"/><path class="cls-1" d="M10,120.88q0-.4,0-.8c0-.3,0-.59,0-.88L5,118.88q0,.59,0,1.19t0,1.08Z"/><path class="cls-1" d="M12.84,128.65a14,14,0,0,1-.94-1.39l-4.26,2.51a19.1,19.1,0,0,0,1.27,1.88Z"/><path class="cls-1" d="M43.07,121.56l-4.93-.38a14.39,14.39,0,0,1-.23,1.67l4.85,1A19,19,0,0,0,43.07,121.56Z"/><path class="cls-1" d="M15.92,108.53l-2.86-4a19.31,19.31,0,0,0-1.77,1.42l3.31,3.67A14.42,14.42,0,0,1,15.92,108.53Z"/><path class="cls-1" d="M36.61,126.55,41,128.82c.29-.57.56-1.15.79-1.74l-4.6-1.82A14.17,14.17,0,0,1,36.61,126.55Z"/><path class="cls-1" d="M12.89,111.43l-3.91-3a19.47,19.47,0,0,0-1.28,1.87l4.24,2.54A14.65,14.65,0,0,1,12.89,111.43Z"/><path class="cls-1" d="M34.9,111l3.8-3.17a19,19,0,0,0-1.56-1.65l-3.39,3.6A13.79,13.79,0,0,1,34.9,111Z"/><path class="cls-1" d="M34.46,104.09a19.1,19.1,0,0,0-2-1.13L30.3,107.4a14,14,0,0,1,1.46.83Z"/><path class="cls-1" d="M29.31,101.74a19.18,19.18,0,0,0-2.22-.49l-.78,4.88a14,14,0,0,1,1.64.36Z"/><path class="cls-1" d="M38.11,118.65l4.92-.49a19.18,19.18,0,0,0-.36-2.24L37.85,117A14,14,0,0,1,38.11,118.65Z"/><path class="cls-1" d="M19.66,106.65,18.12,102a19.17,19.17,0,0,0-2.11.84l2.09,4.48A14.13,14.13,0,0,1,19.66,106.65Z"/><path class="cls-1" d="M23.79,106,23.7,101a19.16,19.16,0,0,0-2.26.18l.67,4.9A14.37,14.37,0,0,1,23.79,106Z"/><path class="cls-1" d="M37.08,114.59l4.56-1.91a18.86,18.86,0,0,0-1-2l-4.29,2.45A13.74,13.74,0,0,1,37.08,114.59Z"/><path class="cls-1" d="M30.61,132.38l2.24,4.41a19.31,19.31,0,0,0,2-1.14l-2.74-4.12A14.42,14.42,0,0,1,30.61,132.38Z"/><path class="cls-1" d="M12.77,111.53l-4-2.89c-.37.52-.72,1.06-1,1.61L12,112.72A14.17,14.17,0,0,1,12.77,111.53Z"/><path class="cls-1" d="M34,130l3.43,3.56A19.47,19.47,0,0,0,39,131.85l-3.82-3.13A14.65,14.65,0,0,1,34,130Z"/><path class="cls-1" d="M11.62,134.06a19.1,19.1,0,0,0,1.79,1.4l2.81-4.07a14,14,0,0,1-1.32-1Z"/><path class="cls-1" d="M16.38,137.14a19.18,19.18,0,0,0,2.12.81L20,133.24a14,14,0,0,1-1.57-.6Z"/><path class="cls-1" d="M26.64,133.69l.84,4.87a19.17,19.17,0,0,0,2.21-.52l-1.41-4.74A14.13,14.13,0,0,1,26.64,133.69Z"/><path class="cls-1" d="M22.45,133.78l-.63,4.9a19.16,19.16,0,0,0,2.26.16l0-4.94A14.37,14.37,0,0,1,22.45,133.78Z"/><path class="cls-1" d="M24.06,130.54V128a7.36,7.36,0,0,1-3.87-1.11l.61-1.69a6.74,6.74,0,0,0,3.64,1.09c1.8,0,3-1,3-2.48s-1-2.25-2.86-3c-2.58-1-4.17-2.17-4.17-4.37a4.14,4.14,0,0,1,3.82-4.07v-2.55h1.57v2.45a6.74,6.74,0,0,1,3.29.89l-.63,1.67a6.1,6.1,0,0,0-3.18-.86c-1.95,0-2.68,1.16-2.68,2.17,0,1.32.93,2,3.13,2.88,2.6,1.06,3.92,2.38,3.92,4.63a4.39,4.39,0,0,1-4,4.3v2.63Z"/></svg>