<svg id="Слой_1" data-name="Слой 1" xmlns="http://www.w3.org/2000/svg" viewBox="0 0 200 200"><defs><style>.cls-1{fill:#fff;}</style></defs><title>design</title><path class="cls-1" d="M93.53,57.66c.08.37.28.59.49.59a.37.37,0,0,0,.29-.17c0,.3.06.58.09.83.22,1.77.43,2.67,1.42,3.7,1.6,1.66,2.79,2.28,4.21,2.28s2.55-.62,4.15-2.28c1-1,1.2-1.93,1.42-3.7,0-.25.06-.53.09-.83a.37.37,0,0,0,.29.17c.2,0,.41-.22.49-.59.14-.63.19-1,.59-2.33s.14-1.68-.08-1.87a.44.44,0,0,0-.29-.09,1.12,1.12,0,0,0-.7.28c.05-1.23.08-2.59.08-4.08,0-4.27-4.94-4.94-6.08-4.94s-6.08.66-6.08,4.94c0,1.49,0,2.85.08,4.08a1.12,1.12,0,0,0-.7-.28.43.43,0,0,0-.29.09c-.22.19-.47.54-.08,1.87S93.39,57,93.53,57.66ZM114.15,186a18.84,18.84,0,0,1-3.16-2.55c-.82-.76-.13-2.28-.38-4s-.32-2.22.89-7.53A57.09,57.09,0,0,0,113.26,158c-.06-4.49-1.46-6.39-1.52-8.16s.06-3.86-.06-6.65a30.49,30.49,0,0,1,.53-7.36c.51-3.29,1.1-7.85,1.43-13.84s.19-10.08-.51-13.25-1.77-5.15-.8-8.48-.08-5.91-.21-8.61.08-2.53,1.31-4.26,2.83-9.87,3.76-13.08,1.18-3.25,1.18-3.25c7.47-.84,10-2.66,11.48-3.67s1.35-.84,4.05-1.22,5.4-1,10.17-3.67a115.73,115.73,0,0,0,10.8-7.21h.8c2.46,0,4.58-.38,5.57-1.41s1.69-1.18,2.24-1.18h2.24c1.1,0,1.94-.59,1.52-1.48-.31-.64-2.79-.73-4.13-.73h-.85s1.1-.8,2.53-2,1.77-.68,3.8-1.86,1.48-2,1.48-2a57.2,57.2,0,0,1-7.72,2c-2.91.55-4.52,2.19-8.86,4s-8.78,2.15-16.08,4.26A44,44,0,0,0,125,60.66a26.65,26.65,0,0,0-4-.32c-7.93,0-10.82,4.12-11.71,4.12h0c-.75,0-2.46-1.29-3.55-2.25a5.69,5.69,0,0,1-.84,1.11c-1.79,1.86-3.16,2.59-4.88,2.59s-3.17-.75-4.94-2.59a5.69,5.69,0,0,1-.83-1.1c-1.07.95-2.79,2.21-3.55,2.25h0c-.89,0-3.78-4.12-11.71-4.12a26.62,26.62,0,0,0-4,.32,44,44,0,0,0-12.36-5.78c-7.3-2.11-11.73-2.49-16.08-4.26s-5.95-3.42-8.86-4a57.16,57.16,0,0,1-7.72-2s-.55.8,1.48,2,2.36.63,3.8,1.86,2.53,2,2.53,2H36.9c-1.34,0-3.82.09-4.13.73-.42.89.42,1.48,1.52,1.48h2.24c.55,0,1.14,0,2.24,1.18s3.12,1.41,5.57,1.41h.8a115.69,115.69,0,0,0,10.8,7.21c4.77,2.66,7.47,3.29,10.17,3.67s2.53.21,4.05,1.22,4,2.83,11.48,3.67c0,0,.25,0,1.18,3.25s2.53,11.35,3.76,13.08S88,89,87.88,91.67s-1.18,5.27-.21,8.61-.11,5.32-.8,8.48S86,116,86.36,122s.93,10.55,1.43,13.84a30.54,30.54,0,0,1,.53,7.36c-.13,2.78,0,4.87-.06,6.65s-1.46,3.67-1.52,8.16a57,57,0,0,0,1.77,13.92c1.2,5.32,1.14,5.82.89,7.53s.44,3.23-.38,4A18.86,18.86,0,0,1,85.86,186c-1.65,1.05-2.53,1.39-2.28,2s1.65,1.18,3.38,1.69a5.84,5.84,0,0,0,1.64.22,6.57,6.57,0,0,0,3.13-.77,4.52,4.52,0,0,1,2.83-.8c1.27,0,1.69-.38,1.73-1.35a5.33,5.33,0,0,0-1.22-2.83,2.56,2.56,0,0,1-.46-2.49,4.89,4.89,0,0,0,.08-2.41c-.08-1.31,0-7,.08-9.62s1-4.56,1.56-6.92a22.13,22.13,0,0,0,.38-7.43,14,14,0,0,1,.13-4.6c.25-2.24.89-5.4,1.52-9a45.18,45.18,0,0,0,.89-9.58c0-3.76.34-8.23.82-8.23s.77,4.47.72,8.23a45.2,45.2,0,0,0,.89,9.58c.63,3.63,1.27,6.79,1.52,9a14,14,0,0,1,.13,4.6,22.15,22.15,0,0,0,.38,7.43c.59,2.36,1.52,4.26,1.56,6.92s.17,8.31.08,9.62a4.92,4.92,0,0,0,.08,2.41,2.56,2.56,0,0,1-.46,2.49,5.33,5.33,0,0,0-1.22,2.83c0,1,.46,1.35,1.73,1.35a4.52,4.52,0,0,1,2.83.8,6.55,6.55,0,0,0,3.13.77,5.81,5.81,0,0,0,1.64-.22c1.73-.51,3.12-1.06,3.37-1.69S115.79,187.07,114.15,186ZM65.94,76c2.66-.58,2.45-.68,4.22-.26a16.09,16.09,0,0,0,8.31.22c1.64-.32,2.63-.83,3.69-.18-.11-.44-.22-.85-.32-1.18-.43-1.48-.7-2.22-.84-2.59-7.07-.87-9.67-2.61-11.25-3.67l-.16-.1A4,4,0,0,0,67,67.33L66,67.19a24.93,24.93,0,0,1-3.25-.65c-1.26,0-2.61,0-4,.11-7.58.56-11.86,1.75-16.55,1.6s-6.77-1.14-9.69-.64a57.09,57.09,0,0,1-7.93.83s-.23.94,2.08,1.34,2.44-.23,4.21.42,3.08,1,3.08,1-4.33,1.43-4.42,2.4.91,1.24,1.94.86l2.1-.78c.52-.19,1.08-.36,2.51.33s3.88.14,6.46-.91a115.77,115.77,0,0,0,12.64,3C60.52,77,63.27,76.61,65.94,76Zm109.52-7.59a57.09,57.09,0,0,1-7.93-.83c-2.92-.5-5,.49-9.69.64s-9-1-16.55-1.6c-1.4-.1-2.74-.13-4-.11a25,25,0,0,1-3.25.65l-1.06.14a4,4,0,0,0-2.57.92l-.16.1c-1.58,1.06-4.19,2.81-11.25,3.67-.15.36-.42,1.1-.84,2.59-.1.33-.21.75-.32,1.18,1.07-.64,2.06-.14,3.69.18a16.09,16.09,0,0,0,8.31-.22c1.78-.42,1.56-.32,4.22.26s5.42.93,10.81.1a115.88,115.88,0,0,0,12.64-3c2.58,1,5,1.6,6.46.91s2-.52,2.51-.33l2.1.78c1,.38,2,.12,1.94-.86s-4.42-2.4-4.42-2.4,1.31-.37,3.08-1,1.9,0,4.21-.42S175.46,68.44,175.46,68.44Zm-90.1,53.63a61,61,0,0,1,.18-11.5c-.36.77-.83,1.67-1.51,2.9a62,62,0,0,0-5.89,13.48c-1.58,5.57-2.41,7.53-4.24,10.76S72.12,140.93,70,143s-5.57,7.41-7.47,14.94-2.09,8.16-3,9.68-1.2,2.28-2.34,2.53a15.15,15.15,0,0,1-4.3.44,10.81,10.81,0,0,1-3.73-.44c-1.08-.38-1.74-.57-2-.16a1.64,1.64,0,0,0,.73,2.21c1.11.51,1,.41,1.46,1.14a6.59,6.59,0,0,0,2.5,2.25,5.89,5.89,0,0,0,2.91,1c.95.1.85.1,1.3.85a5.68,5.68,0,0,0,2.06,2.28c1.3.89,2.12,1,2.78.38a4.66,4.66,0,0,0,1.23-3.42c.06-1.77.1-2.63.7-3.51s2-4,3.32-6.93a24,24,0,0,1,4.3-7c2.15-2.41,4.27-3.77,5.6-7.31s1.33-4.27,2.51-5.71a12.46,12.46,0,0,0,1.94-3c.51-1,.89-1.31,2.53-3.12a51.6,51.6,0,0,0,3.7-4.61C86.07,131.11,85.61,126.72,85.35,122.07Zm65.51,48a10.82,10.82,0,0,1-3.74.44,15.11,15.11,0,0,1-4.3-.44c-1.14-.25-1.39-1-2.34-2.53s-1.14-2.15-3-9.68S132.06,145,130,143s-2-2-3.86-5.25-2.66-5.19-4.24-10.76A62,62,0,0,0,116,113.46c-.68-1.24-1.16-2.13-1.51-2.9a61.1,61.1,0,0,1,.18,11.5c-.26,4.65-.71,9-1.37,13.43a51.48,51.48,0,0,0,3.7,4.61c1.65,1.81,2,2.11,2.53,3.12a12.46,12.46,0,0,0,1.94,3c1.18,1.43,1.18,2.16,2.51,5.71s3.45,4.9,5.6,7.31a23.94,23.94,0,0,1,4.3,7c1.36,2.91,2.72,6,3.32,6.93s.63,1.74.7,3.51a4.67,4.67,0,0,0,1.23,3.42c.66.63,1.49.51,2.78-.38a5.67,5.67,0,0,0,2.06-2.28c.44-.76.35-.76,1.3-.85a5.91,5.91,0,0,0,2.91-1,6.59,6.59,0,0,0,2.5-2.25c.44-.73.35-.63,1.46-1.14a1.64,1.64,0,0,0,.73-2.21C152.6,169.54,151.93,169.73,150.86,170.11Z"/><path class="cls-1" d="M175.25,191.31H24.75V40.81h150.5Zm-148.5-2h146.5V42.81H26.75Z"/><path class="cls-1" d="M100.08,195.71a94.24,94.24,0,1,1,94.24-94.24A94.35,94.35,0,0,1,100.08,195.71Zm0-185.49a91.24,91.24,0,1,0,91.24,91.24A91.35,91.35,0,0,0,100.08,10.22Z"/></svg>