<svg id="Слой_1" data-name="Слой 1" xmlns="http://www.w3.org/2000/svg" viewBox="0 0 200 200"><defs><style>.cls-1{fill:#fff;}</style></defs><title>leadpage</title><path class="cls-1" d="M184.42,53.88a6.52,6.52,0,0,0-5-.84L110,69A6.6,6.6,0,0,0,105,76.86l7.48,32.64a6.64,6.64,0,0,0,6.42,5.11,6.53,6.53,0,0,0,1.47-.17l69.46-15.93a6.59,6.59,0,0,0,4.95-7.9L187.35,58A6.55,6.55,0,0,0,184.42,53.88Zm6.65,39.88a3.13,3.13,0,0,1-2,1.39l-69.46,15.93a3.14,3.14,0,0,1-3.76-2.36l-7.48-32.64a3.14,3.14,0,0,1,2.35-3.76h0L180.22,56.4A3.17,3.17,0,0,1,184,58.76l7.48,32.64A3.12,3.12,0,0,1,191.07,93.76Z"/><path class="cls-1" d="M82.11,158a31,31,0,0,1-16.29-4.58l2.76-4.52a26.35,26.35,0,0,0,21.13,2.73,31.14,31.14,0,0,0,18.06-13.9l4.52,2.76a36.42,36.42,0,0,1-21.15,16.23A33.4,33.4,0,0,1,82.11,158Z"/><circle class="cls-1" cx="150.61" cy="83.59" r="8.35" transform="translate(-14.87 35.78) rotate(-12.92)"/><path class="cls-1" d="M50.62,110.33l-1.42-5.48a16.33,16.33,0,0,1-8.92-.23l.36-4a15,15,0,0,0,8.42.31c3.85-1,5.88-3.9,5.08-7s-3.37-4.28-7.81-4.87c-6.1-.73-10.16-2.34-11.39-7.06-1.17-4.51,1.14-8.75,5.93-10.86l-1.42-5.48,3.37-.87,1.37,5.26a14.94,14.94,0,0,1,7.55.07l-.43,3.94A13.54,13.54,0,0,0,44,74c-4.18,1.09-5.1,4-4.54,6.16.73,2.82,3.1,3.71,8.33,4.44,6.18.83,9.73,2.92,11,7.75,1.11,4.29-.83,9.08-6.18,11.45L54,109.44Z"/><path class="cls-1" d="M56.89,111.12l-7.95,2.06-1.47-5.65a17.41,17.41,0,0,1-8-.73l-1.65-.63.79-8.71,2.82,1a12.65,12.65,0,0,0,7.07.25c2.55-.66,3.88-2.29,3.4-4.14-.31-1.19-1-2.5-5.85-3.14-5.63-.68-11.65-2.26-13.35-8.79-1.31-5.05.81-9.85,5.46-12.66L36.59,64l7.89-2,1.42,5.45a16.49,16.49,0,0,1,6.46.48l1.9.54L53.32,77l-2.64-.72a11.12,11.12,0,0,0-6.12-.06c-2.19.57-3.25,1.81-2.86,3.31.3,1.14.9,1.95,6.39,2.71,5,.68,11.08,2.36,12.92,9.48C62.37,97,60.1,102.08,55.3,105l1.59,6.11ZM48.45,87.07c3.41.67,6.88,2.18,8,6.3a7.57,7.57,0,0,1,.23,2.5,6.9,6.9,0,0,0-.13-2.94C55.76,90.11,54.08,88,48.45,87.07ZM37,79.65a6.6,6.6,0,0,0,.22,1.79c.66,2.54,2.33,4.32,8.43,5.2-4.11-.7-7.43-1.92-8.46-5.89A7.45,7.45,0,0,1,37,79.65Z"/><path class="cls-1" d="M154.44,52.83V31.13A13.84,13.84,0,0,0,140.62,17.3H41.17A13.84,13.84,0,0,0,27.34,31.13v14a43.86,43.86,0,0,1,4.37-1.51V31.13a9.46,9.46,0,0,1,9.45-9.45h99.45a9.46,9.46,0,0,1,9.45,9.45V53.83Z"/><path class="cls-1" d="M27.34,126.42v42.45A13.85,13.85,0,0,0,41.17,182.7h99.45a13.84,13.84,0,0,0,13.82-13.83V112.59l-4.37,1v55.28a9.46,9.46,0,0,1-9.45,9.45H41.17a9.46,9.46,0,0,1-9.45-9.45V127.93A43.86,43.86,0,0,1,27.34,126.42Z"/><path class="cls-1" d="M29.76,123.55A40.11,40.11,0,1,0,45.11,46.38v0l-.25,0h-.3l-.38.19a2.19,2.19,0,0,0,.19,3.68l.4.15H45A36.1,36.1,0,1,1,9,86.55l.33-4.68-4-.6L5.2,82.52l-.2,4A40,40,0,0,0,29.76,123.55Z"/><polygon class="cls-1" points="36.87 47.25 32.6 48.42 33.98 52.19 34.29 52.08 37.47 51.25 36.87 47.25"/><polygon class="cls-1" points="26.79 54.49 25.39 51.58 22.58 53.31 21.69 53.98 24.1 57.2 24.92 56.59 27.21 55.19 26.79 54.49"/><polygon class="cls-1" points="18.63 62.04 15.66 59.33 14.05 61.11 12.97 62.58 16.19 64.98 17.25 63.56 18.63 62.04"/><polygon class="cls-1" points="12.45 71.25 8.82 69.5 8.09 71.04 7.23 73.4 11.01 74.79 11.85 72.48 12.45 71.25"/></svg>