<svg id="Слой_1" data-name="Слой 1" xmlns="http://www.w3.org/2000/svg" viewBox="0 0 200 200"><defs><style>.cls-1{fill:#fff;}</style></defs><title>logodiz</title><path class="cls-1" d="M99.72,75.57a3.11,3.11,0,0,1-1.23-.25h0a3.14,3.14,0,0,1-1.66-4.12C96.9,71,105,51.38,136.18,15.54a3.13,3.13,0,0,1,4.34-.37l.08.07a3.05,3.05,0,0,1,1.08,2.12,3.12,3.12,0,0,1-.77,2.31c-29.69,34.13-38.23,53.77-38.31,54a3.1,3.1,0,0,1-1.71,1.71A3.14,3.14,0,0,1,99.72,75.57Zm38.81-59.14a1.14,1.14,0,0,0-.87.4c-31,35.59-38.94,54.92-39,55.11a1.2,1.2,0,0,0,.62,1.58h0a1.17,1.17,0,0,0,1.54-.63c.06-.15,8.61-20,38.65-54.51a1.18,1.18,0,0,0,.29-.87,1.11,1.11,0,0,0-.39-.77A1.3,1.3,0,0,0,138.52,16.43Z"/><path class="cls-1" d="M99.73,118.83a46.35,46.35,0,0,1-13.08-1.89,45.54,45.54,0,0,1-17.43-9.54C55.89,95.77,50.33,72.08,56.83,54.59,62,40.59,76.7,22.32,90.4,6.3a3.21,3.21,0,0,1,4.4-.36,3.19,3.19,0,0,1,.38,4.45C81.85,26,67.58,43.63,62.71,56.77c-5.55,15-.66,36,10.66,45.88a40.09,40.09,0,0,0,63.21-14.38,59.37,59.37,0,0,1,3.39-7c2.95-5,8.84-12.31,19-24.86a3.14,3.14,0,0,1,4.88,4C153.82,72.8,148,80,145.39,84.5a54.43,54.43,0,0,0-3,6.26A46.39,46.39,0,0,1,99.73,118.83ZM92.78,7.19a1.18,1.18,0,0,0-.9.4c-13.59,15.88-28.16,34-33.22,47.69-6.25,16.79-.93,39.51,11.84,50.65h0a43.6,43.6,0,0,0,16.69,9.14A44.43,44.43,0,0,0,140.55,90a56.07,56.07,0,0,1,3.16-6.48c2.69-4.58,8.54-11.86,18.65-24.34a1.19,1.19,0,0,0-.18-1.66,1.19,1.19,0,0,0-1.66.18c-10.11,12.48-16,19.78-18.85,24.62A57.65,57.65,0,0,0,138.39,89a42.05,42.05,0,0,1-66.29,15.09c-11.88-10.34-17-32.34-11.21-48,5-13.44,19.37-31.28,32.8-47a1.21,1.21,0,0,0-.13-1.68A1.26,1.26,0,0,0,92.78,7.19Z"/><path class="cls-1" d="M99.39,105.8q-1,0-2.06-.07a3.09,3.09,0,0,1-2.15-1.06,3.14,3.14,0,0,1,2.57-5.2h0c11.35.79,22.47-6.56,27.66-18.31,1.26-2.81,8.15-17.4,23.17-35.94a3.14,3.14,0,0,1,4.88,4c-15.69,19.36-22.21,34.33-22.28,34.48C125.24,97.13,112.64,105.8,99.39,105.8Zm-1.84-4.38a1.18,1.18,0,0,0-.09,2.35c13.16.9,26-7.5,31.94-20.89.06-.13,6.71-15.38,22.55-34.94a1.19,1.19,0,0,0-.18-1.66,1.18,1.18,0,0,0-1.66.18C135.25,64.81,128.45,79.2,127.24,81.9c-5.55,12.56-17.45,20.38-29.62,19.53Z"/><path class="cls-1" d="M86.17,102.65a3.14,3.14,0,0,1-1.4-.33A33.58,33.58,0,0,1,78.7,98.4h0A33.35,33.35,0,0,1,67.6,63.19c4-13.95,16.08-29.46,39.93-56.91a3.13,3.13,0,0,1,4.34-.37L112,6A3,3,0,0,1,113,8.1a3.12,3.12,0,0,1-.77,2.31C89.55,36.55,77.34,52.16,73.66,64.94A27.17,27.17,0,0,0,87.57,96.7a3.14,3.14,0,0,1,1.4,4.21,3.11,3.11,0,0,1-1.81,1.58A3.15,3.15,0,0,1,86.17,102.65Zm-6.24-5.76a31.7,31.7,0,0,0,5.71,3.68,1.18,1.18,0,0,0,.9.06,1.17,1.17,0,0,0,.68-.59,1.19,1.19,0,0,0-.54-1.59,29.13,29.13,0,0,1-14.9-34c3.78-13.13,16.11-28.91,39-55.27a1.18,1.18,0,0,0,.29-.87,1.11,1.11,0,0,0-.39-.77,1.19,1.19,0,0,0-1.69.09C85.35,34.79,73.4,50.14,69.49,63.73A31.39,31.39,0,0,0,79.93,96.88Z"/><path class="cls-1" d="M113.34,28.17a3.13,3.13,0,0,1-2-.71,3.19,3.19,0,0,1-.45-4.43h0c.92-1.14,2.29-2.88,3.94-5l.35-.46c2.2-2.85,4.7-6.08,6.49-8.13A3.14,3.14,0,0,1,126.05,9l.09.08a3.14,3.14,0,0,1,.31,4.42c-1.76,2-4.34,5.36-6.62,8.31-1.72,2.24-3.13,4-4.07,5.19a3.08,3.08,0,0,1-2.11,1.14Zm-.91-3.91a1.21,1.21,0,0,0,.16,1.68,1.19,1.19,0,0,0,.87.26,1.14,1.14,0,0,0,.78-.42c.93-1.15,2.33-2.93,4-5.16,2.3-3,4.9-6.32,6.69-8.4a1.18,1.18,0,1,0-1.8-1.54c-1.75,2-4.23,5.21-6.42,8l-.35.46c-1.16,1.51-2.79,3.62-4,5.08Z"/><path class="cls-1" d="M99.63,90.7a17.85,17.85,0,0,1-5-.73,18.15,18.15,0,0,1-6.36-3.33h0a18.23,18.23,0,0,1-6.07-19.26c3.1-10.77,13.46-25.6,21.61-36.14a3.15,3.15,0,0,1,4.41-.55,3.17,3.17,0,0,1,.55,4.41c-7.8,10.1-17.69,24.21-20.5,34a12,12,0,0,0,4,12.66,11.89,11.89,0,0,0,4.17,2.19c6.05,1.79,12.43-1.63,14.84-8,2.29-6,19.49-29.25,34.11-47.31a3.14,3.14,0,0,1,4.88,4c-15.85,19.56-31.33,40.87-33.13,45.6A18.84,18.84,0,0,1,99.63,90.7ZM106.25,32h-.15a1.18,1.18,0,0,0-.79.45c-8,10.4-18.26,25-21.27,35.48a16.28,16.28,0,0,0,5.42,17.2h0a16.18,16.18,0,0,0,5.68,3c8.24,2.42,16.88-2.12,20.1-10.58,1.89-5,17.21-26.1,33.44-46.13a1.19,1.19,0,0,0-.17-1.66,1.18,1.18,0,0,0-1.66.17C132.3,47.83,115.25,70.82,113,76.67,110.25,84,102.85,87.9,95.8,85.81a14,14,0,0,1-9.47-17.27c2.91-10.08,12.94-24.4,20.84-34.65a1.2,1.2,0,0,0-.19-1.65A1.19,1.19,0,0,0,106.25,32Z"/><path class="cls-1" d="M11.26,137.58A6.26,6.26,0,1,0,5,131.33a6.27,6.27,0,0,0,6.26,6.26Zm0-11a4.79,4.79,0,1,1-4.79,4.79,4.79,4.79,0,0,1,4.79-4.79Z"/><path class="cls-1" d="M188.74,137.58a6.26,6.26,0,1,1,6.26-6.26,6.27,6.27,0,0,1-6.26,6.26Zm0-11a4.79,4.79,0,1,0,4.79,4.79,4.79,4.79,0,0,0-4.79-4.79Z"/><path class="cls-1" d="M109.07,193.46a53.91,53.91,0,0,1,1.35-17.67c3.23-12.56,6.38-16.18,6.38-16.18-10.3-9.15-15.35-26.56-15.35-26.56s1.67-.93,1-2.32a2.46,2.46,0,0,0-2.06-1.08v30a3.11,3.11,0,1,1-.85,0v-30a2.47,2.47,0,0,0-2.06,1.08c-.64,1.39,1,2.32,1,2.32s-5,17.41-15.35,26.56c0,0,3.15,3.61,6.38,16.18a54,54,0,0,1,1.35,17.67,25,25,0,0,0,9.3,1.32C104.38,194.64,106.52,194.35,109.07,193.46Z"/><polygon class="cls-1" points="91.67 122.28 91.67 138.93 99.62 138.93 99.62 135.29 95.31 135.29 95.31 125.91 104.69 125.91 104.69 135.29 100.38 135.29 100.38 138.93 108.33 138.93 108.33 122.28 91.67 122.28"/><rect class="cls-1" x="60.08" y="130.59" width="2.42" height="1.47"/><rect class="cls-1" x="64.92" y="130.59" width="2.42" height="1.47"/><rect class="cls-1" x="50.4" y="130.59" width="2.42" height="1.47"/><rect class="cls-1" x="69.76" y="130.59" width="2.42" height="1.47"/><rect class="cls-1" x="55.24" y="130.59" width="2.42" height="1.47"/><rect class="cls-1" x="74.6" y="130.59" width="2.42" height="1.47"/><rect class="cls-1" x="84.27" y="130.59" width="2.42" height="1.47"/><rect class="cls-1" x="79.44" y="130.59" width="2.42" height="1.47"/><rect class="cls-1" x="21.37" y="130.59" width="2.42" height="1.47"/><rect class="cls-1" x="26.21" y="130.59" width="2.42" height="1.47"/><rect class="cls-1" x="16.53" y="130.59" width="2.42" height="1.47"/><rect class="cls-1" x="31.05" y="130.59" width="2.42" height="1.47"/><rect class="cls-1" x="89.11" y="130.59" width="2.42" height="1.47"/><rect class="cls-1" x="35.89" y="130.59" width="2.42" height="1.47"/><rect class="cls-1" x="40.72" y="130.59" width="2.42" height="1.47"/><rect class="cls-1" x="45.56" y="130.59" width="2.42" height="1.47"/><rect class="cls-1" x="156.86" y="130.59" width="2.42" height="1.47"/><rect class="cls-1" x="166.53" y="130.59" width="2.42" height="1.47"/><rect class="cls-1" x="147.18" y="130.59" width="2.42" height="1.47"/><rect class="cls-1" x="108.47" y="130.59" width="2.42" height="1.47"/><rect class="cls-1" x="161.69" y="130.59" width="2.42" height="1.47"/><rect class="cls-1" x="181.05" y="130.59" width="2.42" height="1.47"/><rect class="cls-1" x="171.37" y="130.59" width="2.42" height="1.47"/><rect class="cls-1" x="176.21" y="130.59" width="2.42" height="1.47"/><rect class="cls-1" x="152.02" y="130.59" width="2.42" height="1.47"/><rect class="cls-1" x="118.15" y="130.59" width="2.42" height="1.47"/><rect class="cls-1" x="142.34" y="130.59" width="2.42" height="1.47"/><rect class="cls-1" x="122.98" y="130.59" width="2.42" height="1.47"/><rect class="cls-1" x="113.31" y="130.59" width="2.42" height="1.47"/><rect class="cls-1" x="137.5" y="130.59" width="2.42" height="1.47"/><rect class="cls-1" x="132.66" y="130.59" width="2.42" height="1.47"/><rect class="cls-1" x="127.82" y="130.59" width="2.42" height="1.47"/><path class="cls-1" d="M93.53,129.19a68.17,68.17,0,0,1-9.83-2.13A56.95,56.95,0,0,1,45,56.67h0C47.51,48,55,35.79,60.75,27a.71.71,0,0,1,.59-.32.67.67,0,0,1,.33.09l.1.08a.69.69,0,0,1,.14.91c-4.7,7.12-13,20.4-15.53,29.27a55.41,55.41,0,0,0,18.4,58.52,56.25,56.25,0,0,0,19.29,10.17,68.48,68.48,0,0,0,9.46,2v-3a65.66,65.66,0,0,1-8.62-1.9,53.3,53.3,0,0,1-18.28-9.63A52.48,52.48,0,0,1,49.2,57.88c2.45-8.5,10.55-21.48,15.16-28.46a3.61,3.61,0,0,0-.74-4.81l-.28-.22a3.64,3.64,0,0,0-5,1c-5.92,8.93-13.52,21.47-16.1,30.46a59.88,59.88,0,0,0,40.66,74,70.88,70.88,0,0,0,10.66,2.28Z"/><path class="cls-1" d="M161.16,81.35a3.66,3.66,0,0,0-.91-.55,3.62,3.62,0,0,0-4.73,2c-10.61,25.71-27.33,40.39-48.37,42.45h0a3.7,3.7,0,0,0-.62.12v7a3.61,3.61,0,0,0,1,.15l.36,0c16.64-1.62,39.58-11.07,54.38-46.89A3.66,3.66,0,0,0,161.16,81.35Zm-1.64,3.08c-14.24,34.47-36.11,43.54-52,45.08a.7.7,0,0,1-.51-.15.66.66,0,0,1-.23-.47.69.69,0,0,1,.62-.74c22.18-2.17,39.74-17.47,50.79-44.25a.66.66,0,0,1,.36-.37.7.7,0,0,1,.53,0,.72.72,0,0,1,.18.11A.7.7,0,0,1,159.52,84.43Z"/></svg>