<?xml version="1.0" encoding="iso-8859-1"?>
<!-- Generator: Adobe Illustrator 16.0.0, SVG Export Plug-In . SVG Version: 6.00 Build 0)  -->
<!DOCTYPE svg PUBLIC "-//W3C//DTD SVG 1.1//EN" "http://www.w3.org/Graphics/SVG/1.1/DTD/svg11.dtd">
<svg xmlns="http://www.w3.org/2000/svg" xmlns:xlink="http://www.w3.org/1999/xlink" version="1.1" id="Capa_1" x="0px" y="0px" width="512px" height="512px" viewBox="0 0 100 100" style="enable-background:new 0 0 100 100;" xml:space="preserve">
<g>
	<g>
		<path d="M87.443,45.365c-0.537-1.955-5.529-2.123-7.537-1.454C72.602,46.34,65.297,48.77,57.991,51.2L32.634,41.074l-2.676,2.854    l10.852,13.03c-6.995,2.418-19.806,6.884-22.131,7.655c-2.001,0.666,12.936,2.785,16.36,2.217c0,0,26.312-8.582,37.945-12.453    c2.988-0.994,5.979-1.988,8.972-2.984C83.956,50.727,88.025,47.484,87.443,45.365z" fill="#FFFFFF"/>
		<polygon points="14.533,55.344 12.5,57.221 17.89,63.51 25.702,60.758   " fill="#FFFFFF"/>
	</g>
	<path d="M94,6H6c-3.313,0-6,2.687-6,6v76c0,3.312,2.687,6,6,6h88c3.314,0,6-2.688,6-6V12C100,8.686,97.314,6,94,6z M79,10   c2.205,0,4,1.794,4,4s-1.795,4-4,4s-4-1.794-4-4S76.795,10,79,10z M68,10c2.205,0,4,1.794,4,4s-1.795,4-4,4s-4-1.794-4-4   S65.795,10,68,10z M94,88H6V22h88V88z M90,18c-2.205,0-4-1.794-4-4s1.795-4,4-4s4,1.794,4,4S92.205,18,90,18z" fill="#FFFFFF"/>
</g>
<g>
</g>
<g>
</g>
<g>
</g>
<g>
</g>
<g>
</g>
<g>
</g>
<g>
</g>
<g>
</g>
<g>
</g>
<g>
</g>
<g>
</g>
<g>
</g>
<g>
</g>
<g>
</g>
<g>
</g>
</svg>
