<?xml version="1.0" encoding="utf-8"?>
<!-- Generator: Adobe Illustrator 19.0.0, SVG Export Plug-In . SVG Version: 6.00 Build 0)  -->
<svg version="1.1" id="Слой_1" xmlns="http://www.w3.org/2000/svg" xmlns:xlink="http://www.w3.org/1999/xlink" x="0px" y="0px"
	 viewBox="-17.4 338 462 207.5" style="enable-background:new -17.4 338 462 207.5;" xml:space="preserve">
<style type="text/css">
	.st0{fill:#FFFFFF;}
	.st1{fill:#004FFF;}
</style>
<g>
	<g>
		<path class="st0" d="M-1.3,524.5c0,2.5-1.4,3-3.6,1.9c-4.3-2.1-9.7-8.5-9.6-23.5c1.5-46.1,16.3-94.8,33.3-137.3
			c1.3-3.6,3.6-5.3,7.6-3.9c13.4,4.8,17.8,17.5,16.2,31c-1.5,28.7-1.2,57.5,0,86.2c13.1-47.8,36.7-91.2,55.5-136.9
			c1.5-3.7,3.5-4.5,7.2-2.5c12.2,6.5,12.9,21.1,8.9,32.8c-11.7,39.1-21.2,80.1-23.1,121c-0.2,2.5-1.1,2.8-3.4,1.7
			c-4.5-1.8-9.4-7.8-9.7-23.6c-0.6-27.3,7-55.7,13.6-82.2c-18.3,36.9-34.7,75.2-42.2,115.9c-0.4,2.6-1.3,3.6-3.5,2.9
			C35,505,29.5,494.6,28,484.3c-3.7-25.7-4.6-52.8-4.1-79.1C11.5,443.5,0.7,484.1-1.3,524.5z"/>
		<path class="st0" d="M140.2,479.8c-30.5,8.5-26.1-40-20.7-54.1c6.9-18.2,20.8-43.2,42.4-48.3c9.4-2.2,16,4.1,17.6,12.1
			c2.5-6.4,4.9-11.6,6.2-14.2c1.5-3.1,3.3-4.2,5.7-2.5c4.7,3.4,8.2,12.7,5,25.1c-4.3,15-11.1,29.1-14.9,44.2
			c-3,14.2-0.2,22.4,6.8,20.2c24.1-10.1,31.7-49.6,36.2-71.9c-20.3-3.9-0.5-40.7,7.3-40.7c6.9-0.1,5.7,19.4,4.4,29
			c9.2-2.3,19-8.5,26-14.7c3.2-2.8,4.9-3.4,7.4-1.4c5.4,4.3,12.5,14.2,6.4,22.9c-9.5,12.9-19.1,28.4-22.2,43.8
			c-2.5,12.8,2.4,22.3,9,21.3c13.8-2.1,20.8-23.4,25.3-35.6c0.7-2,2.4-2.6,3.6-0.4c1.5,2.6,2.9,8.3,0.7,15.1
			c-3.9,13.5-16.1,25.8-29.8,27.7c-17.8,2.6-27.6-16.4-24.5-32.1c3.4-17.4,13.2-33.6,23.8-47.7c-8.7,5.5-17.4,11.1-27.8,12.7
			c-5.2,26.7-16.4,69.4-45.9,79.2c-11.1,3.6-21.5-3.2-23.4-14.5C159.8,465.5,151.9,476.5,140.2,479.8z M137.3,430.9
			c-2.8,7.9-8.1,41.8,3.5,40.8c11.7-1,20.8-28.7,25.5-41.7c2.2-7,11.5-41.9,1.7-41.8C155.8,388.5,142,417.5,137.3,430.9z"/>
		<path class="st0" d="M370.6,354.9c-1.1-3,1.3-4,4.6-3.5c10.9,1.6,16.1,12.4,17.1,22.4c0.9,6,1.6,12.8,2.6,19.7
			c13-13.6,25.6-27.6,37.5-42.2c2-2.6,5.6-2.8,5.1,1.2c-0.8,5.6-5.6,12.9-10.8,19.5c-9.2,11.8-19.8,22.5-30.4,33.1
			c0.9,7.7,1.6,14.9,2.5,20c1.4,9.3,4.3,12.5,7.7,12.4c12.6-2.8,21.8-20.7,26.5-31.4c1.2-2.1,3.9-1.6,4.4,0.2
			c1,3.5,0.7,8.8-3.2,15.8c-6.3,12.1-18.6,22.5-32.2,23.4c-14.5,1-19.9-13.1-21.2-25.6c0-0.2,0-0.2,0-0.5
			c-16.1,13-35.2,26.7-55.8,30c-32.9,5.1-43.2-30.6-33.5-55.1c6.8-17.1,27.5-47.9,50.4-39.8c6.3,2.8,11.5,6,15.3,10.7
			c6,9.9-0.1,23.6-6.2,31.9c-10.8,17.1-27.2,18.1-44.1,10.6c-4,13.2-1.3,38.4,18.4,34.7c20.4-3.8,38.9-20.1,54-33.6
			C377.2,390.8,374.9,372.5,370.6,354.9z M336.2,388.3c7.1-10.3,11.6-22.5,8.2-24.8c-15.7-2.2-29.9,23.2-34.4,34.6
			c-0.6,1.5-1.2,2.9-1.6,4.1C320.4,407.8,330.3,397.6,336.2,388.3z"/>
	</g>
</g>
<g>
	<path class="st1" d="M411.1,476.2c-3.8,5.8-13.3,0.6-32.5,2.2c-21.1,1.9-121.3,13.1-346.7,67c-2.1,0.5-4-0.6-2.8-3.4
		c2.1-4.8,7.7-9.4,18-12.6c172.1-52.1,323.9-59.4,361-58C411.9,471.4,413,473.2,411.1,476.2z"/>
</g>
</svg>
