<?xml version="1.0" encoding="utf-8"?>
<!-- Generator: Adobe Illustrator 19.0.0, SVG Export Plug-In . SVG Version: 6.00 Build 0)  -->
<svg version="1.1" id="Слой_1" xmlns="http://www.w3.org/2000/svg" xmlns:xlink="http://www.w3.org/1999/xlink" x="0px" y="0px"
	 viewBox="188.8 398.2 28.3 45.4" style="enable-background:new 188.8 398.2 28.3 45.4;" xml:space="preserve">
<style type="text/css">
	.st0{fill:#FFFFFF;}
	.st1{fill:#004FFF;}
</style>
<g>
	<path class="st0" d="M203,437.6l-0.7-0.9c-0.5-0.7-12.9-16.1-12.9-23.3c0-7.5,6.1-13.7,13.7-13.7s13.7,6.1,13.7,13.7
		c0,7.3-12.4,22.7-12.9,23.3L203,437.6z"/>
	<path class="st1" d="M203,420.3c-3.8,0-6.9-3.1-6.9-6.9s3.1-6.9,6.9-6.9c3.8,0,6.9,3.1,6.9,6.9C209.9,417.2,206.8,420.3,203,420.3z
		"/>
	<path class="st0" d="M209.6,432.6v0.9c4,0.8,6.5,2.2,6.5,3.5c0,1.9-5.4,4.1-13.2,4.1c-7.8,0-13.2-2.2-13.2-4.1
		c0-1.3,2.5-2.7,6.5-3.5v-0.9c-4.2,0.8-7.4,2.3-7.4,4.4c0,3.2,7.3,5,14.1,5c6.8,0,14.1-1.8,14.1-5
		C217.1,434.9,213.8,433.4,209.6,432.6z"/>
	<circle class="st1" cx="203" cy="423.2" r="1.2"/>
	<circle class="st1" cx="203" cy="426.7" r="1.2"/>
	<circle class="st1" cx="203" cy="430.2" r="1.2"/>
</g>
</svg>
