<?xml version="1.0" encoding="utf-8"?>
<!-- Generator: Adobe Illustrator 20.1.0, SVG Export Plug-In . SVG Version: 6.00 Build 0)  -->
<svg version="1.1" id="Слой_1" xmlns="http://www.w3.org/2000/svg" xmlns:xlink="http://www.w3.org/1999/xlink" x="0px" y="0px"
	 viewBox="0 0 200 200" enable-background="new 0 0 200 200" xml:space="preserve">
<g>
	<g>
		<path fill="#333333" d="M127.4,92.9h-57V36.7h57V92.9z M73.7,89.6H124V40.1H73.7V89.6z"/>
	</g>
	<g>
		<path fill="#333333" d="M200,92.9h-57V36.7h57V92.9z M146.4,89.6h50.3V40.1h-50.3V89.6z"/>
	</g>
	<g>
		<path fill="#333333" d="M57,163.3H0v-56.2h57V163.3z M3.4,159.9h50.3v-49.5H3.4V159.9z"/>
	</g>
	<g>
		<path fill="#333333" d="M127.4,163.3h-57v-56.2h57V163.3z M73.7,159.9H124v-49.5H73.7V159.9z"/>
	</g>
	<g>
		<path fill="#333333" d="M200,163.3h-57v-56.2h57V163.3z M146.4,159.9h50.3v-49.5h-50.3V159.9z"/>
	</g>
	<path fill="#333333" d="M1.7,38.4v52.9h53.6V38.4H1.7z M39.4,68.1H29.3v10.1c0,0.9-0.8,1.7-1.7,1.7S26,79.1,26,78.2V68.1H15.9
		c-0.9,0-1.7-0.8-1.7-1.7s0.8-1.7,1.7-1.7H26v-10c0-0.9,0.8-1.7,1.7-1.7s1.7,0.8,1.7,1.7v10.1h10.1c0.9,0,1.7,0.8,1.7,1.7
		S40.3,68.1,39.4,68.1z"/>
</g>
</svg>
