<?xml version="1.0" encoding="utf-8"?>
<!-- Generator: Adobe Illustrator 20.1.0, SVG Export Plug-In . SVG Version: 6.00 Build 0)  -->
<svg version="1.1" id="Слой_1" xmlns="http://www.w3.org/2000/svg" xmlns:xlink="http://www.w3.org/1999/xlink" x="0px" y="0px"
	 viewBox="0 0 200 200" enable-background="new 0 0 200 200" xml:space="preserve">
<g>
	<path fill="#333333" d="M143.8,93.6l-41.4-39V2.4c0-1.3-1.1-2.4-2.4-2.4s-2.4,1.1-2.4,2.4v52.1L56.2,93.6c-0.3,0.3-0.5,0.7-0.5,1.1
		v103.6c0,0.9,0.7,1.6,1.6,1.6h85.5c0.9,0,1.6-0.7,1.6-1.6V94.8C144.3,94.4,144.1,93.9,143.8,93.6z M97.9,79.9
		c0.3,0.9,1.2,1.6,2.2,1.6s1.9-0.6,2.2-1.5c2.9,1,4.9,3.6,4.9,6.8c0,4-3.2,7.2-7.2,7.2s-7.2-3.2-7.2-7.2
		C92.8,83.5,94.9,80.8,97.9,79.9z M141.2,196.8H58.8V95.5l38.9-36.7v17.9c-4.6,1-8.1,5.2-8.1,10.1c0,5.7,4.7,10.4,10.4,10.4
		c5.7,0,10.4-4.7,10.4-10.4c0-4.9-3.4-9-7.9-10.1V59l38.7,36.5V196.8z"/>
	<path fill="#333333" d="M104.9,134.4c0.8,1,1.4,2.3,1.7,4l4.7-0.7c-0.4-2.7-1.4-4.8-3.1-6.4c-1.6-1.5-3.9-2.4-6.7-2.7v-2.1h-2.7
		v2.1c-3.4,0.3-5.9,1.4-7.6,3.3c-1.7,1.9-2.5,4.2-2.5,6.9s0.8,4.9,2.5,6.6c1.7,1.7,4.2,2.9,7.6,3.7v14.3c-1.8-0.2-3.2-0.9-4.3-2.3
		c-1.1-1.3-1.8-3.2-2.1-5.7l-4.5,0.8c0.2,3.3,1.3,5.8,3.1,7.6c1.8,1.8,4.4,2.9,7.8,3.3v4.5h2.7v-4.5c3.3-0.2,5.9-1.3,7.8-3.5
		c1.9-2.1,2.8-4.7,2.8-7.6c0-2.9-0.9-5.2-2.6-6.9c-1.7-1.8-4.3-3-7.7-3.6c-0.2,0-0.3-0.1-0.4-0.1v-13
		C102.9,132.7,104,133.4,104.9,134.4z M98.8,144.9c-1.7-0.5-3.1-1.3-4.1-2.3s-1.5-2.3-1.5-4.1c0-1.5,0.5-2.8,1.4-4
		c1-1.1,2.4-1.9,4.2-2.2V144.9L98.8,144.9z M106.2,152.4c0.9,1,1.3,2.4,1.3,4.1c0,1.9-0.6,3.5-1.7,4.8s-2.6,2-4.3,2.3v-13.7
		C103.8,150.5,105.3,151.3,106.2,152.4z"/>
</g>
</svg>
