<svg id="Слой_1" data-name="Слой 1" xmlns="http://www.w3.org/2000/svg" viewBox="0 0 200 200"><defs><style>.cls-1{fill:#fff;}</style></defs><title>promo</title><path class="cls-1" d="M29.32,183.47a5.76,5.76,0,1,1,8.14,0A5.75,5.75,0,0,1,29.32,183.47Z"/><path class="cls-1" d="M60.6,54.07H33a6.27,6.27,0,0,1-6.28-6.26V20.26A6.28,6.28,0,0,1,33,14H60.6a6.28,6.28,0,0,1,6.28,6.28V47.81A6.27,6.27,0,0,1,60.6,54.07ZM33,16.11a4.15,4.15,0,0,0-4.14,4.15V47.81A4.14,4.14,0,0,0,33,51.94H60.6a4.14,4.14,0,0,0,4.14-4.12V20.26a4.15,4.15,0,0,0-4.14-4.15Z"/><path class="cls-1" d="M153,52.92v-.1a9.37,9.37,0,0,0-.33-2.14A10.12,10.12,0,0,0,148,44.51L116.32,26.23l0-.09a10.05,10.05,0,0,0-7-6.64L74,10,73.94,10a10,10,0,0,0-8.51-4.7H28.22A10.14,10.14,0,0,0,18.1,15.39V184.63a10.13,10.13,0,0,0,10.12,10.12h45A10,10,0,0,0,81,191.13l98-98a10.13,10.13,0,0,0,0-14.3ZM71.78,184.63a6.34,6.34,0,0,1-1.09,3.55l-.05.06A6.3,6.3,0,0,1,65.43,191H28.22a6.36,6.36,0,0,1-6.35-6.35V15.39A6.37,6.37,0,0,1,28.22,9H65.43a6.37,6.37,0,0,1,6.35,6.37Zm44.7-152.77c.06-.24.12-.47.16-.69l.06-.35,29.39,16.95a6.36,6.36,0,0,1,2.31,8.68L76.51,181,92,123l1.18.67a5.92,5.92,0,0,0,3,.8,6,6,0,0,0,5.2-3l13.78-23.87A6,6,0,0,0,113,89.38l-10.36-6,1.78-6.64,12.72,7.35a6,6,0,0,0,3,.8,6.07,6.07,0,0,0,5.22-3l13.76-23.87A6.06,6.06,0,0,0,137,49.83L115.06,37.19Zm50.95,51.72a4.39,4.39,0,0,1,0,6.2l-19.48,19.5a4.32,4.32,0,0,1-3.08,1.27h0a4.38,4.38,0,0,1-3.11-1.29L129.4,96.93l18.8-32.58ZM124,106.31l9,9a4.39,4.39,0,0,1,0,6.22l-19.5,19.48a4.34,4.34,0,0,1-3.08,1.27,4.41,4.41,0,0,1-3.12-1.29l-2.16-2.16.1-.17ZM92.49,121.37,102.22,85l10,5.77a4.42,4.42,0,0,1,1.61,6L100,120.67a4.41,4.41,0,0,1-3.8,2.18,4.33,4.33,0,0,1-2.2-.6Zm22.13-82.55,21.53,12.43a4.42,4.42,0,0,1,1.61,6L124,81.12a4.33,4.33,0,0,1-2.65,2,4.43,4.43,0,0,1-1.14.15,4.36,4.36,0,0,1-2.2-.6l-13.1-7.54,0-.19Zm-6.29-15.67a6.3,6.3,0,0,1,3.84,3,6.23,6.23,0,0,1,.64,4.82L75.55,170.06V111.52l1.77.47a5.73,5.73,0,0,0,1.55.21,6,6,0,0,0,5.82-4.44l7.13-26.62a6,6,0,0,0-4.26-7.37l-12-3.23v-6.9l13.84,3.69a5.77,5.77,0,0,0,1.56.2,6,6,0,0,0,5.82-4.44l7.13-26.62a6,6,0,0,0-4.26-7.37L75.54,22.62V15.39a4,4,0,0,0,0-.68l-.07-.39ZM75.55,109.81V72.22l11.58,3.09a4.39,4.39,0,0,1,3.1,5.38L83.1,107.32a4.35,4.35,0,0,1-5.39,3.08Zm0-47.89V24.32L99.2,30.66a4.32,4.32,0,0,1,2.67,2,4.43,4.43,0,0,1,.45,3.34L95.17,62.65a4.39,4.39,0,0,1-5.36,3.1ZM176.27,90.49,80.42,186.36h0c-.17.16-.32.31-.47.47l-1.52,1.53a14,14,0,0,1-2.39,2l-.8.46.46-.8,28.67-49.63,1.85,1.85a6,6,0,0,0,8.5,0l19.48-19.5a6,6,0,0,0,0-8.52l-9.35-9.35,3.71-6.45,12,12a6.09,6.09,0,0,0,4.28,1.76,6,6,0,0,0,4.24-1.76l19.48-19.48a6,6,0,0,0,0-8.52L149,62.88l2.64-4.54c.09-.15.16-.3.24-.45l.25-.51L176.26,81.5a6.36,6.36,0,0,1,0,9Z"/><path class="cls-1" d="M60.61,108H33a6.52,6.52,0,0,0-2.5.51,5.42,5.42,0,0,0-1.17.68,6.77,6.77,0,0,0-1.51,1.52,8.22,8.22,0,0,0-.64,1.21,6.56,6.56,0,0,0-.45,2.35v27.56A6.28,6.28,0,0,0,33,148H60.61A6.56,6.56,0,0,0,63,147.6a8.24,8.24,0,0,0,1.22-.64,6.8,6.8,0,0,0,1.51-1.51,6,6,0,0,0,1.19-3.65V114.23A6.28,6.28,0,0,0,60.61,108ZM33,145.91a4.14,4.14,0,0,1-4.14-4.12V141l4.89,4.89Zm3.78,0L28.9,138v-1.86l9.77,9.77Zm4.89,0-12.8-12.8v-1.86l14.66,14.66Zm4.89,0L28.9,128.23v-1.86l19.56,19.54Zm4.89,0L28.9,123.34v-1.86l24.45,24.43Zm4.89,0L28.9,118.46V116.6l29.33,29.31Zm4.86,0L28.95,113.61a3.76,3.76,0,0,1,.49-1.37l33.15,33.13A3.7,3.7,0,0,1,61.23,145.87Zm3.43-3.29a3.69,3.69,0,0,1-.51,1.32L30.91,110.69a4.09,4.09,0,0,1,1.34-.51l32.41,32.39Zm.09-3L35.2,110.09h1.88l27.67,27.67Zm0-4.89L40.08,110.09H42l22.78,22.78Zm0-4.89L45,110.09h1.88L64.75,128Zm0-4.89L49.88,110.09h1.86l13,13Zm0-4.89-10-10h1.86l8.13,8.13Zm0-4.89-5.1-5.1h1a4.14,4.14,0,0,1,4.14,4.14Z"/><path class="cls-1" d="M60.61,61H33a6.28,6.28,0,0,0-6.27,6.27V94.8A6.28,6.28,0,0,0,33,101.07H60.61a6.28,6.28,0,0,0,6.27-6.27V67.23A6.28,6.28,0,0,0,60.61,61ZM33,98.93A4.14,4.14,0,0,1,28.9,94.8v-.7l4.84,4.84Zm3.71,0L28.9,91.08V86.71L41.13,98.93Zm7.4,0L28.9,83.68V79.31L48.53,98.93Zm7.4,0L28.9,76.3V71.93l27,27Zm9,0H58.94l-30-30V67.23a4,4,0,0,1,.6-2.11L62.72,98.34A4,4,0,0,1,60.61,98.93Zm4.14-4.14a4,4,0,0,1-.53,2L31,63.63a4,4,0,0,1,2-.53h1.81L64.75,93Zm0-4.84L37.89,63.09h4.37L64.75,85.58Zm0-7.4L45.27,63.09h4.37l15.1,15.1Zm0-7.38L52.67,63.09H57l7.7,7.7Zm0-7.4-4.69-4.67h.55a4.14,4.14,0,0,1,4.14,4.14Z"/></svg>