<svg id="Слой_1" data-name="Слой 1" xmlns="http://www.w3.org/2000/svg" viewBox="0 0 200 200"><defs><style>.cls-1{fill:#fff;}</style></defs><title>seo</title><path class="cls-1" d="M20.88,46.47H14.53a1.06,1.06,0,0,1-1.06-1.06V36.94a1.06,1.06,0,0,1,1.06-1.06h6.35a1.06,1.06,0,0,1,1.06,1.06v8.47A1.06,1.06,0,0,1,20.88,46.47Zm-5.29-2.12h4.23V38H15.59Z"/><path class="cls-1" d="M20.88,61.29H14.53a1.06,1.06,0,0,1-1.06-1.06V51.76a1.06,1.06,0,0,1,1.06-1.06h6.35a1.06,1.06,0,0,1,1.06,1.06v8.47A1.06,1.06,0,0,1,20.88,61.29Zm-5.29-2.12h4.23V52.82H15.59Z"/><path class="cls-1" d="M20.88,76.11H14.53a1.06,1.06,0,0,1-1.06-1.06V66.58a1.06,1.06,0,0,1,1.06-1.06h6.35a1.06,1.06,0,0,1,1.06,1.06v8.47A1.06,1.06,0,0,1,20.88,76.11ZM15.59,74h4.23V67.64H15.59Z"/><path class="cls-1" d="M20.88,90.93H14.53a1.06,1.06,0,0,1-1.06-1.06V81.4a1.06,1.06,0,0,1,1.06-1.06h6.35a1.06,1.06,0,0,1,1.06,1.06v8.47A1.06,1.06,0,0,1,20.88,90.93Zm-5.29-2.12h4.23V82.46H15.59Z"/><path class="cls-1" d="M20.88,105.75H14.53a1.06,1.06,0,0,1-1.06-1.06V96.22a1.06,1.06,0,0,1,1.06-1.06h6.35a1.06,1.06,0,0,1,1.06,1.06v8.47A1.06,1.06,0,0,1,20.88,105.75Zm-5.29-2.12h4.23V97.28H15.59Z"/><path class="cls-1" d="M20.88,120.57H14.53a1.06,1.06,0,0,1-1.06-1.06V111A1.06,1.06,0,0,1,14.53,110h6.35A1.06,1.06,0,0,1,21.94,111v8.47A1.06,1.06,0,0,1,20.88,120.57Zm-5.29-2.12h4.23V112.1H15.59Z"/><path class="cls-1" d="M154.49,44.2H146a1.06,1.06,0,0,1,0-2.12h8.47a1.06,1.06,0,0,1,0,2.12Z"/><path class="cls-1" d="M187.09,31.64A2.12,2.12,0,0,1,185,29.53V18.94a4.13,4.13,0,0,0-4.39-4.23H14.15c-2.71,0-4.91,1.9-4.91,4.23V29.53a2.12,2.12,0,1,1-4.23,0V18.94c0-4.67,4.1-8.47,9.15-8.47H180.59a8.36,8.36,0,0,1,8.62,8.47V29.53A2.12,2.12,0,0,1,187.09,31.64Z"/><path class="cls-1" d="M55,50.7H38a1.06,1.06,0,1,1,0-2.12H55a1.06,1.06,0,1,1,0,2.12Z"/><path class="cls-1" d="M61.33,44.35H38a2.12,2.12,0,0,1,0-4.23H61.33a2.12,2.12,0,1,1,0,4.23Z"/><circle class="cls-1" cx="18.82" cy="21.11" r="2.7"/><circle class="cls-1" cx="27.5" cy="21.11" r="2.7"/><circle class="cls-1" cx="36.18" cy="21.11" r="2.7"/><circle class="cls-1" cx="141.25" cy="43.68" r="2.12"/><path class="cls-1" d="M118.49,56.91H110a1.06,1.06,0,0,1,0-2.12h8.47a1.06,1.06,0,0,1,0,2.12Z"/><circle class="cls-1" cx="105.26" cy="56.38" r="2.12"/><path class="cls-1" d="M148.14,92.9h-8.47a1.06,1.06,0,1,1,0-2.12h8.47a1.06,1.06,0,0,1,0,2.12Z"/><circle class="cls-1" cx="134.9" cy="92.37" r="2.12"/><path class="cls-1" d="M86.73,73.85H78.26a1.06,1.06,0,0,1,0-2.12h8.47a1.06,1.06,0,1,1,0,2.12Z"/><circle class="cls-1" cx="73.5" cy="73.32" r="2.12"/><path class="cls-1" d="M105.79,107.73H97.32a1.06,1.06,0,1,1,0-2.12h8.47a1.06,1.06,0,0,1,0,2.12Z"/><circle class="cls-1" cx="92.56" cy="107.2" r="2.12"/><path class="cls-1" d="M27.23,145.48a1.06,1.06,0,0,1-1.06-1.06V31.64a1.06,1.06,0,1,1,2.12,0V144.42A1.06,1.06,0,0,1,27.23,145.48Z"/><path class="cls-1" d="M125.68,86.44a1.06,1.06,0,0,1-.95-1.53l11.79-23.54a1.06,1.06,0,0,1,1.9.95L126.63,85.86A1.06,1.06,0,0,1,125.68,86.44Z"/><path class="cls-1" d="M118,87.42a1.06,1.06,0,0,1-.83-.4L107.12,74.16a1.06,1.06,0,0,1,1.67-1.31l10.07,12.85a1.06,1.06,0,0,1-.18,1.49A1,1,0,0,1,118,87.42Z"/><path class="cls-1" d="M92.11,92.36a1.06,1.06,0,0,1-1-1.52l8.48-17.71a1.06,1.06,0,0,1,1.91.91L93.07,91.76A1.06,1.06,0,0,1,92.11,92.36Z"/><path class="cls-1" d="M84.19,94.09a1.06,1.06,0,0,1-.68-.25L77.58,88.9a1.06,1.06,0,1,1,1.36-1.62l5.93,4.95A1.06,1.06,0,0,1,85,93.71,1.07,1.07,0,0,1,84.19,94.09Z"/><path class="cls-1" d="M52.86,103.2a1.06,1.06,0,0,1-.7-1.85L68.47,86.81a1.06,1.06,0,1,1,1.41,1.58L53.56,102.94A1.06,1.06,0,0,1,52.86,103.2Z"/><path class="cls-1" d="M104.21,75.93A6.92,6.92,0,1,1,111.13,69,6.92,6.92,0,0,1,104.21,75.93Zm0-11.71A4.8,4.8,0,1,0,109,69,4.8,4.8,0,0,0,104.21,64.22Z"/><path class="cls-1" d="M73.91,91.08a6.92,6.92,0,1,1,6.92-6.92A6.92,6.92,0,0,1,73.91,91.08Zm0-11.72a4.8,4.8,0,1,0,4.8,4.8A4.8,4.8,0,0,0,73.91,79.37Z"/><path class="cls-1" d="M122.4,97.14a6.92,6.92,0,1,1,6.92-6.92A6.92,6.92,0,0,1,122.4,97.14Zm0-11.71a4.8,4.8,0,1,0,4.8,4.8A4.8,4.8,0,0,0,122.4,85.43Z"/><path class="cls-1" d="M89.06,103.2A6.92,6.92,0,1,1,96,96.29,6.92,6.92,0,0,1,89.06,103.2Zm0-11.71a4.8,4.8,0,1,0,4.8,4.8A4.8,4.8,0,0,0,89.06,91.49Z"/><path class="cls-1" d="M140.58,63.81a6.92,6.92,0,1,1,6.92-6.92A6.92,6.92,0,0,1,140.58,63.81Zm0-11.71a4.8,4.8,0,1,0,4.8,4.8A4.8,4.8,0,0,0,140.58,52.09Z"/><path class="cls-1" d="M121.14,142.3H9.23V31.64H185v82.22a35.65,35.65,0,0,1,4.23,7.62v-92a2.12,2.12,0,0,0-2.12-2.12H7.12A2.12,2.12,0,0,0,5,29.53V144.42a2.12,2.12,0,0,0,2.12,2.12h115.2A35.43,35.43,0,0,1,121.14,142.3Z"/><path class="cls-1" d="M191.41,133.62h3.21a.44.44,0,0,1,.3.7l-5.81,8.42a.48.48,0,0,1-.7,0l-5.81-8.42a.44.44,0,0,1,.3-.7H186a30.5,30.5,0,0,0-55.21-17.93l-4.31-3.11a35.87,35.87,0,0,1,64.93,21Zm-89.67,53.8h0a7.26,7.26,0,0,0,10.22,0L126.49,173a7.28,7.28,0,0,0,1.7-7.61l4.21-4.21a35.55,35.55,0,0,0,23.14,8.52,35.93,35.93,0,0,0,29.06-14.83l-4.31-3.11A30.56,30.56,0,0,1,125,133.82h3.11a.44.44,0,0,0,.3-.7l-5.71-8.52a.48.48,0,0,0-.7,0L116.17,133a.44.44,0,0,0,.3.7h3.11a35.55,35.55,0,0,0,8.52,23.14l-4.21,4.21a7.16,7.16,0,0,0-7.61,1.6L101.84,177.1A7.29,7.29,0,0,0,101.74,187.42Zm41-71.74,2.5,2.5a19.9,19.9,0,0,1,6.71-2.81v-3.51a1.54,1.54,0,0,1,1.5-1.5h4.21a1.54,1.54,0,0,1,1.5,1.5v3.51a18.07,18.07,0,0,1,6.71,2.81l2.5-2.5a1.57,1.57,0,0,1,2.2,0l3,3a1.57,1.57,0,0,1,0,2.2l-2.5,2.5a19.9,19.9,0,0,1,2.81,6.71h3.51a1.54,1.54,0,0,1,1.5,1.5v4.21a1.54,1.54,0,0,1-1.5,1.5h-3.51a18.07,18.07,0,0,1-2.81,6.71l2.5,2.5a1.57,1.57,0,0,1,0,2.2l-3,3a1.57,1.57,0,0,1-2.2,0l-2.5-2.5a19.9,19.9,0,0,1-6.71,2.81v3.51a1.54,1.54,0,0,1-1.5,1.5h-4.21a1.54,1.54,0,0,1-1.5-1.5v-3.51a18.07,18.07,0,0,1-6.71-2.81l-2.5,2.5a1.57,1.57,0,0,1-2.2,0l-3-3a1.57,1.57,0,0,1,0-2.2L140,144a19.9,19.9,0,0,1-2.81-6.71H133.7a1.54,1.54,0,0,1-1.5-1.5v-4.21a1.54,1.54,0,0,1,1.5-1.5h3.51A18.07,18.07,0,0,1,140,123.4l-2.5-2.5a1.57,1.57,0,0,1,0-2.2l3-3A1.57,1.57,0,0,1,142.72,115.69Zm12.82,5.71a12.22,12.22,0,1,0,12.22,12.22A12.27,12.27,0,0,0,155.54,121.4Zm-2,18.69,3-3,6.91-6.91-3-3-6.91,6.91-2.91-2.91-3,3,2.91,2.91Z"/></svg>