<svg id="Слой_1" data-name="Слой 1" xmlns="http://www.w3.org/2000/svg" viewBox="0 0 200 200"><defs><style>.cls-1{fill:#fff;}</style></defs><title>site</title><path class="cls-1" d="M101,89.14l-30,9.46c-.41.13-.74-.19-.74-.71a1.26,1.26,0,0,1,.74-1.18l30-9.46c.41-.13.74.19.74.71A1.26,1.26,0,0,1,101,89.14Z"/><path class="cls-1" d="M101,100.78l-30,9.46c-.41.13-.74-.19-.74-.71a1.26,1.26,0,0,1,.74-1.18l30-9.46c.41-.13.74.19.74.71A1.26,1.26,0,0,1,101,100.78Z"/><path class="cls-1" d="M88,116.17l-17.09,5.39c-.41.13-.74-.19-.74-.71a1.26,1.26,0,0,1,.74-1.18L88,114.29c.41-.13.74.19.74.71A1.26,1.26,0,0,1,88,116.17Z"/><path class="cls-1" d="M66.77,99.91l-1.19.38c-.41.13-.74-.19-.74-.71a1.26,1.26,0,0,1,.74-1.18L66.77,98c.41-.13.74.19.74.71A1.26,1.26,0,0,1,66.77,99.91Z"/><path class="cls-1" d="M66.77,111.55l-1.19.38c-.41.13-.74-.19-.74-.71a1.26,1.26,0,0,1,.74-1.18l1.19-.38c.41-.13.74.19.74.71A1.26,1.26,0,0,1,66.77,111.55Z"/><path class="cls-1" d="M66.77,122.87l-1.19.38c-.41.13-.74-.19-.74-.71a1.26,1.26,0,0,1,.74-1.18l1.19-.38c.41-.13.74.19.74.71A1.26,1.26,0,0,1,66.77,122.87Z"/><path class="cls-1" d="M101,123.42l-30,9.46c-.41.13-.74-.19-.74-.71a1.26,1.26,0,0,1,.74-1.18l30-9.46c.41-.13.74.19.74.71A1.26,1.26,0,0,1,101,123.42Z"/><path class="cls-1" d="M88,138.82l-17.09,5.39c-.41.13-.74-.19-.74-.71a1.26,1.26,0,0,1,.74-1.18L88,136.93c.41-.13.74.19.74.71A1.26,1.26,0,0,1,88,138.82Z"/><path class="cls-1" d="M66.77,134.2l-1.19.38c-.41.13-.74-.19-.74-.71a1.26,1.26,0,0,1,.74-1.18l1.19-.38c.41-.13.74.19.74.71A1.26,1.26,0,0,1,66.77,134.2Z"/><path class="cls-1" d="M66.77,145.52l-1.19.38c-.41.13-.74-.19-.74-.71a1.26,1.26,0,0,1,.74-1.18l1.19-.38c.41-.13.74.19.74.71A1.26,1.26,0,0,1,66.77,145.52Z"/><path class="cls-1" d="M159,98l-21.65,6.82c-.41.13-.74-.19-.74-.71a1.26,1.26,0,0,1,.74-1.18L159,96.11c.41-.13.74.19.74.71A1.26,1.26,0,0,1,159,98Z"/><path class="cls-1" d="M159,107.53l-21.19,6.68c-.41.13-.74-.19-.74-.71a1.26,1.26,0,0,1,.74-1.18L159,105.64c.41-.13.74.19.74.71A1.26,1.26,0,0,1,159,107.53Z"/><path class="cls-1" d="M139.4,78.63l-17.58,5.54c-.41.13-.74-.19-.74-.71a1.26,1.26,0,0,1,.74-1.18l17.58-5.54c.41-.13.74.19.74.71A1.26,1.26,0,0,1,139.4,78.63Z"/><path class="cls-1" d="M139.4,88.17l-17.2,5.42c-.41.13-.74-.19-.74-.71a1.26,1.26,0,0,1,.74-1.18l17.2-5.42c.41-.13.74.19.74.71A1.26,1.26,0,0,1,139.4,88.17Z"/><path class="cls-1" d="M159,118l-36.82,11.6c-.41.13-.74-.19-.74-.71a1.26,1.26,0,0,1,.74-1.18L159,116.16c.41-.13.74.19.74.71A1.26,1.26,0,0,1,159,118Z"/><path class="cls-1" d="M158.92,128.46l-36.82,11.6c-.41.13-.74-.19-.74-.71a1.26,1.26,0,0,1,.74-1.18l36.82-11.6c.41-.13.74.19.74.71A1.26,1.26,0,0,1,158.92,128.46Z"/><path class="cls-1" d="M147.54,143.13,132.19,148c-.41.13-.74-.19-.74-.71a1.26,1.26,0,0,1,.74-1.18l15.36-4.84c.41-.13.74.19.74.71A1.26,1.26,0,0,1,147.54,143.13Z"/><path class="cls-1" d="M125.69,119v-2.29a3.66,3.66,0,0,1-2.72-.14l.43-1.65a3.34,3.34,0,0,0,2.56.17,3,3,0,0,0,2.11-2.88c0-1.25-.69-1.8-2-2.06-1.81-.33-2.93-1-2.93-3a5.09,5.09,0,0,1,2.68-4.49v-2.29l1.1-.35v2.19a3.36,3.36,0,0,1,2.31.07l-.44,1.63a3,3,0,0,0-2.24-.07,2.65,2.65,0,0,0-1.88,2.54c0,1.18.66,1.56,2.2,1.89,1.83.38,2.75,1.26,2.75,3.28a5.42,5.42,0,0,1-2.81,4.73v2.35Z"/><path class="cls-1" d="M127.55,119.39l-2.6.82v-2.36a3.76,3.76,0,0,1-2.41-.34l-.46-.27.93-3.62.79.42a2.83,2.83,0,0,0,2.15.14,1.83,1.83,0,0,0,1.37-1.71c0-.49-.12-1-1.54-1.33-1.67-.31-3.39-1-3.39-3.72a6.42,6.42,0,0,1,2.68-5.24V99.7l2.58-.81v2.27a3.58,3.58,0,0,1,1.94.23l.54.23-1,3.58-.75-.31a2.49,2.49,0,0,0-1.87-.06,1.45,1.45,0,0,0-1.14,1.36c0,.48.12.81,1.74,1.16s3.21,1,3.21,4a6.81,6.81,0,0,1-2.81,5.48v2.55Zm-.67-10a2.48,2.48,0,0,1,1.94,2.66,4.3,4.3,0,0,1-.13,1,4,4,0,0,0,.19-1.22A2.23,2.23,0,0,0,126.88,109.35ZM124,106.21a3.69,3.69,0,0,0-.08.75c0,1.06.37,1.81,2.17,2.2-1.2-.31-2.12-.83-2.12-2.49A4.06,4.06,0,0,1,124,106.21Z"/><path class="cls-1" d="M73.9,151.57c-4.55,1.43-8.24,7.3-8.24,13.1s3.69,9.34,8.24,7.91,8.24-7.3,8.24-13.1S78.45,150.14,73.9,151.57Zm4.36,7.54-4.43,7a1,1,0,0,1-.52.44h0a.51.51,0,0,1-.54-.18l-2.44-3.12a1.21,1.21,0,0,1,.12-1.36c.32-.43.79-.51,1-.18l1.92,2.46,3.84-6.11c.29-.46.76-.61,1-.33A1.13,1.13,0,0,1,78.26,159.12Z"/><path class="cls-1" d="M94.62,145c-4.55,1.43-8.24,7.3-8.24,13.1s3.69,9.34,8.24,7.91,8.24-7.3,8.24-13.1S99.17,143.61,94.62,145Zm3.48,12.13a1.13,1.13,0,0,1,0,1.33,1,1,0,0,1-.52.44.51.51,0,0,1-.52-.11l-2.43-2.34-2.43,3.87a1,1,0,0,1-.52.44.51.51,0,0,1-.52-.11,1.13,1.13,0,0,1,0-1.33l2.43-3.87-2.49-2.39a1.13,1.13,0,0,1,0-1.33c.29-.46.76-.61,1-.33l2.49,2.39,2.49-4c.29-.46.76-.61,1-.33a1.13,1.13,0,0,1,0,1.33l-2.49,4Z"/><path class="cls-1" d="M64.22,69.73c1.26-.4,2.28.58,2.28,2.19a3.89,3.89,0,0,1-2.28,3.63C63,76,61.93,75,61.93,73.36A3.89,3.89,0,0,1,64.22,69.73Z"/><path class="cls-1" d="M71.62,67.4c1.26-.4,2.28.58,2.28,2.19a3.89,3.89,0,0,1-2.28,3.63c-1.26.4-2.28-.58-2.28-2.19A3.89,3.89,0,0,1,71.62,67.4Z"/><path class="cls-1" d="M79,65.07c1.26-.4,2.28.58,2.28,2.19A3.89,3.89,0,0,1,79,70.89c-1.26.4-2.28-.58-2.28-2.19A3.89,3.89,0,0,1,79,65.07Z"/><path class="cls-1" d="M164.2,145.75l-47.37,14.93c-.41.13-.74-.19-.74-.71V76.3a1.26,1.26,0,0,1,.74-1.18l31-9.76a.51.51,0,0,1,.49.08L157,72.53l7.72,6.62a.81.81,0,0,1,.24.62v64.8A1.26,1.26,0,0,1,164.2,145.75Zm-46.63,12.81,45.89-14.46V80.65L156,74.25l-8.47-6.91-29.95,9.44Z"/><path class="cls-1" d="M163.09,83.5l-18.5,5.83c-.41.13-.74-.19-.74-.71V68.81a1.26,1.26,0,0,1,.74-1.18c.41-.13.74.19.74.71V87.21l17.76-5.6c.41-.13.74.19.74.71A1.26,1.26,0,0,1,163.09,83.5Z"/><path class="cls-1" d="M182.52,27.7a5.08,5.08,0,0,0-4.56-.76L165.58,30.8l.07-11a4.7,4.7,0,0,0-6.11-4.49l-12.94,4.05.07-9.67a4.71,4.71,0,0,0-6.11-4.49L18.7,43.4a4.69,4.69,0,0,0-3.3,4.49V169.5A4.7,4.7,0,0,0,21.52,174l12.87-4v9.65a4.71,4.71,0,0,0,4.7,4.71,4.82,4.82,0,0,0,1.42-.22l12.62-4v9.77a5.11,5.11,0,0,0,5.09,5.1,5.18,5.18,0,0,0,1.54-.23L181,157a5.08,5.08,0,0,0,3.58-4.86V31.8A5,5,0,0,0,182.52,27.7ZM20.28,170a.53.53,0,0,1-.49-.08.54.54,0,0,1-.23-.44V47.89a.55.55,0,0,1,.39-.53L141.81,9.18a.52.52,0,0,1,.48.08.53.53,0,0,1,.23.43l-.07,11L37.69,53.51A4.68,4.68,0,0,0,34.39,58V165.6Zm19,10.1a.55.55,0,0,1-.72-.52V58a.55.55,0,0,1,.39-.52L160.79,19.29a.54.54,0,0,1,.49.08.53.53,0,0,1,.22.43l-.08,12.29L56.71,64.73a5.08,5.08,0,0,0-3.58,4.86V175.79ZM180.76,31.8V152.11a1.24,1.24,0,0,1-.88,1.19L58.61,191.1a1.24,1.24,0,0,1-1.14-.19,1.22,1.22,0,0,1-.51-1V69.59a1.24,1.24,0,0,1,.88-1.19L179.1,30.6a1.44,1.44,0,0,1,.4-.06,1.25,1.25,0,0,1,.75.25A1.23,1.23,0,0,1,180.76,31.8Z"/><rect class="cls-1" x="53.27" y="63.45" width="133.04" height="2.22" transform="translate(-13.7 38.13) rotate(-17.12)"/></svg>