<svg id="Слой_1" data-name="Слой 1" xmlns="http://www.w3.org/2000/svg" viewBox="0 0 200 200"><defs><style>.cls-1{fill:#fff;}</style></defs><title>socmedia</title><path class="cls-1" d="M87.22,144.93a3.15,3.15,0,0,0-.16-.3,23.85,23.85,0,0,0-4.58-5.3l0,0,0,0,0,0h0q-1.53-1.46-1.94-2a1.84,1.84,0,0,1-.34-1.94,18.09,18.09,0,0,1,2.16-3.14q1-1.27,1.56-2,4.15-5.51,3.59-7l-.14-.24a1.4,1.4,0,0,0-.74-.4,3.77,3.77,0,0,0-1.53-.06l-6.9,0a.9.9,0,0,0-.48,0l-.31.07-.12.06-.1.07a1.07,1.07,0,0,0-.26.25,1.64,1.64,0,0,0-.24.42A39.13,39.13,0,0,1,74,128.74q-.89,1.49-1.63,2.58a12.39,12.39,0,0,1-1.25,1.61,8.69,8.69,0,0,1-.91.83q-.41.31-.62.26l-.41-.1a1.59,1.59,0,0,1-.54-.59,2.63,2.63,0,0,1-.28-.93q-.07-.56-.08-1t0-1.15q0-.74,0-1,0-.91,0-2t.06-1.69q0-.62,0-1.32a5.54,5.54,0,0,0-.08-1.09,3.73,3.73,0,0,0-.25-.77,1.29,1.29,0,0,0-.49-.58,2.77,2.77,0,0,0-.8-.32,15.94,15.94,0,0,0-3.24-.31q-4.46,0-5.73.58a3.23,3.23,0,0,0-.91.72q-.43.53-.12.57a2.94,2.94,0,0,1,2,1l.14.29a4.58,4.58,0,0,1,.34,1.1,11.12,11.12,0,0,1,.22,1.75,18.65,18.65,0,0,1,0,3q-.12,1.25-.23,1.94a3.89,3.89,0,0,1-.32,1.13,4.75,4.75,0,0,1-.29.53.41.41,0,0,1-.12.12,1.79,1.79,0,0,1-.65.12,1.52,1.52,0,0,1-.81-.34,5.75,5.75,0,0,1-1-.92A12.33,12.33,0,0,1,55,131.19q-.65-1.05-1.34-2.49l-.38-.7q-.36-.67-1-2t-1.1-2.48a1.58,1.58,0,0,0-.57-.77l-.12-.07a1.64,1.64,0,0,0-.38-.2,2.54,2.54,0,0,0-.55-.16l-6.57,0a1.67,1.67,0,0,0-1.37.46l-.1.14a.78.78,0,0,0-.07.38,1.91,1.91,0,0,0,.14.65q1.44,3.38,3.13,6.52t2.94,5.06q1.25,1.92,2.54,3.62t1.71,2.18q.42.48.66.72l.6.57a14.21,14.21,0,0,0,1.69,1.38,28.82,28.82,0,0,0,2.47,1.58,13.39,13.39,0,0,0,3.15,1.27,10.9,10.9,0,0,0,3.5.4h2.76a1.91,1.91,0,0,0,1.27-.53l.1-.12a1.59,1.59,0,0,0,.18-.44,2.43,2.43,0,0,0,.08-.66,7.9,7.9,0,0,1,.16-1.86,4.88,4.88,0,0,1,.41-1.25,3.06,3.06,0,0,1,.51-.71,2.08,2.08,0,0,1,.41-.35l.19-.08a1.52,1.52,0,0,1,1.35.37,8,8,0,0,1,1.46,1.39q.68.83,1.64,1.86a11.28,11.28,0,0,0,1.68,1.53l.48.29a5.83,5.83,0,0,0,1.25.53,2.69,2.69,0,0,0,1.34.12l6.13-.1a2.78,2.78,0,0,0,1.41-.3,1.19,1.19,0,0,0,.6-.66,1.86,1.86,0,0,0,0-.82A3,3,0,0,0,87.22,144.93Z"/><path class="cls-1" d="M46.44,37.32A21.35,21.35,0,1,0,67.78,58.67,21.37,21.37,0,0,0,46.44,37.32Zm0,33.67A12.33,12.33,0,1,1,58.76,58.67,12.34,12.34,0,0,1,46.44,71Z"/><path class="cls-1" d="M67,17.23H25.91A20.93,20.93,0,0,0,5,38.14V79.2a20.93,20.93,0,0,0,20.91,20.91H67A20.93,20.93,0,0,0,87.88,79.2V38.14A20.93,20.93,0,0,0,67,17.23Zm11.89,62A11.9,11.9,0,0,1,67,91.09H25.91A11.9,11.9,0,0,1,14,79.2V38.14A11.9,11.9,0,0,1,25.91,26.25H67A11.9,11.9,0,0,1,78.86,38.14Z"/><circle class="cls-1" cx="68.47" cy="36.69" r="5.05"/><path class="cls-1" d="M23.94,170.36h7.54a9.58,9.58,0,1,1-2.6-10.27,1,1,0,0,0,1.41,0l2.77-2.6a1,1,0,0,0,0-1.5,15.37,15.37,0,0,0-10.3-4.22A15.43,15.43,0,1,0,37.86,168c0-.1,0-3.54,0-3.54H23.94a1,1,0,0,0-1,1v3.79A1,1,0,0,0,23.94,170.36Z"/><path class="cls-1" d="M50.64,164.84v-3.7a.91.91,0,0,0-.91-.91H46.62a.91.91,0,0,0-.91.91v3.7H42a.91.91,0,0,0-.91.91v3.12a.91.91,0,0,0,.91.91h3.7v3.7a.91.91,0,0,0,.91.91h3.12a.91.91,0,0,0,.91-.91v-3.7h3.7a.91.91,0,0,0,.91-.91v-3.12a.91.91,0,0,0-.91-.91Z"/><path class="cls-1" d="M195,22.91a23.61,23.61,0,0,1-3.07,1q-1.54.39-3.23.69A11.85,11.85,0,0,0,191.62,22a13.94,13.94,0,0,0,2-3.38q-1.69.77-3.46,1.54a15.15,15.15,0,0,1-3.76,1.07A9.47,9.47,0,0,0,183,18.61a10.92,10.92,0,0,0-12.14,2.31,10.68,10.68,0,0,0-3.23,7.84,13,13,0,0,0,.31,2.46,29.33,29.33,0,0,1-12.68-3.38,32.33,32.33,0,0,1-9.91-8.15A11.69,11.69,0,0,0,144,25.22q0,6.15,4.76,9.07a9.74,9.74,0,0,1-4.92-1.23v.15a10.7,10.7,0,0,0,2.46,7A10.54,10.54,0,0,0,152.43,44a9.92,9.92,0,0,1-1.31.23,14.94,14.94,0,0,1-1.61.08,8.26,8.26,0,0,1-1.84-.31,10.25,10.25,0,0,0,3.69,5.38,11,11,0,0,0,6.45,2.31,21.2,21.2,0,0,1-13.52,4.61h-2.61a31.79,31.79,0,0,0,30.13,2.07A30.41,30.41,0,0,0,187.47,41a32.44,32.44,0,0,0,2-11.06V28.6a22.3,22.3,0,0,0,3.07-2.69A26.35,26.35,0,0,0,195,22.91Z"/><path class="cls-1" d="M101.71,79.2h7.05v21.43h8.81V79.2h8.81V70.39h-8.81V65.91a3.34,3.34,0,0,1,.54-1.9,1.5,1.5,0,0,1,1.22-.81h7.05V54.52h-7.05a9.79,9.79,0,0,0-7.46,3.39,11.59,11.59,0,0,0-3.12,8.14v4.34h-7.05Z"/><path class="cls-1" d="M183.47,121.21H114.92a11.57,11.57,0,0,0-11.53,11.53v38.49a11.57,11.57,0,0,0,11.53,11.53h68.55A11.57,11.57,0,0,0,195,171.24V132.75A11.57,11.57,0,0,0,183.47,121.21Zm-46.4,50.15V132.62L166.69,152Z"/></svg>