<svg id="Слой_1" data-name="Слой 1" xmlns="http://www.w3.org/2000/svg" viewBox="0 0 200 200"><defs><style>.cls-1{fill:#fff;}</style></defs><title>store-s</title><path class="cls-1" d="M67.31,155.05v-5.76a16.61,16.61,0,0,1-8.72-2.51L60,143a15.21,15.21,0,0,0,8.22,2.45c4.05,0,6.78-2.34,6.78-5.59s-2.22-5.07-6.44-6.78c-5.81-2.28-9.41-4.9-9.41-9.87,0-4.74,3.36-8.32,8.61-9.18v-5.76h3.54v5.53a15.2,15.2,0,0,1,7.41,2l-1.43,3.77a13.77,13.77,0,0,0-7.18-1.94c-4.39,0-6,2.62-6,4.9,0,3,2.11,4.45,7.07,6.5,5.87,2.4,8.83,5.36,8.83,10.44,0,4.51-3.13,8.72-9,9.69v5.93Z"/><path class="cls-1" d="M73.28,157.43H64.94V151.5a17.71,17.71,0,0,1-7.73-2.78l-1.46-1,3-8.38L61.28,141A12.86,12.86,0,0,0,68.17,143c2.68,0,4.41-1.26,4.41-3.21,0-1.25-.39-2.73-5-4.58-5.37-2.11-10.89-5.2-10.89-12.07,0-5.31,3.31-9.49,8.61-11.07v-6.24h8.29v5.73a16.77,16.77,0,0,1,6.24,2.13l1.73,1L78.47,123l-2.42-1.38a11.31,11.31,0,0,0-6-1.63c-2.3,0-3.67.95-3.67,2.52,0,1.2.39,2.15,5.6,4.3,4.79,2,10.3,5.16,10.3,12.63,0,5.48-3.54,9.93-9,11.58v6.42Zm-2.17-25.83c3.19,1.54,6.22,3.9,6.22,8.23a7.7,7.7,0,0,1-.41,2.52,7,7,0,0,0,.62-2.92C77.54,136.45,76.42,134,71.12,131.59Zm-9.39-10.24a6.71,6.71,0,0,0-.24,1.82c0,2.67,1.19,4.85,7,7.27-3.87-1.74-6.82-3.78-6.82-8A7.58,7.58,0,0,1,61.72,121.36Z"/><path class="cls-1" d="M176.91,69a17.66,17.66,0,0,1-14.3-7.34,1.33,1.33,0,0,0-2.19,0,17.6,17.6,0,0,1-28.6,0,1.33,1.33,0,0,0-2.19,0,17.6,17.6,0,0,1-28.6,0,1.33,1.33,0,0,0-2.19,0,17.6,17.6,0,0,1-28.6,0,1.33,1.33,0,0,0-2.19,0,17.6,17.6,0,0,1-28.6,0,1.33,1.33,0,0,0-2.19,0A17.66,17.66,0,0,1,23,69c-6.46,0-12.43-3.81-16-10.19-.74-1.33-.27-2.79.22-4.33l.21-.67L21.31,13.39H178.86L193,54.55a8.3,8.3,0,0,1,.41,1.81l0,.16v.16a5,5,0,0,1-.44,2A17.66,17.66,0,0,1,176.91,69ZM161.52,57.21a5.22,5.22,0,0,1,4.28,2.21,13.69,13.69,0,0,0,23.58-2.32.94.94,0,0,0,.08-.34,7,7,0,0,0-.16-.8l0-.09,0,0L176.06,17.31H24.11L11,55.72a12.07,12.07,0,0,0-.41,1.45c2.88,5.06,7.39,8,12.41,8a13.73,13.73,0,0,0,11.12-5.71,5.25,5.25,0,0,1,8.55,0,13.68,13.68,0,0,0,22.24,0,5.25,5.25,0,0,1,8.55,0,13.68,13.68,0,0,0,22.24,0,5.25,5.25,0,0,1,8.55,0,13.68,13.68,0,0,0,22.23,0,5.25,5.25,0,0,1,8.56,0,13.68,13.68,0,0,0,22.23,0A5.22,5.22,0,0,1,161.52,57.21Z"/><path class="cls-1" d="M163.9,88.48H124.13a1,1,0,1,1,0-2H163.9a1,1,0,1,1,0,2Z"/><path class="cls-1" d="M146.78,96.33H124.13a1,1,0,1,1,0-2h22.64a1,1,0,0,1,0,2Z"/><path class="cls-1" d="M118.61,88.48H117a1,1,0,1,1,0-2h1.58a1,1,0,0,1,0,2Z"/><path class="cls-1" d="M118.61,96.33H117a1,1,0,1,1,0-2h1.58a1,1,0,0,1,0,2Z"/><path class="cls-1" d="M163.9,104.17H124.13a1,1,0,1,1,0-2H163.9a1,1,0,1,1,0,2Z"/><path class="cls-1" d="M146.78,112H124.13a1,1,0,1,1,0-2h22.64a1,1,0,0,1,0,2Z"/><path class="cls-1" d="M118.61,104.17H117a1,1,0,1,1,0-2h1.58a1,1,0,0,1,0,2Z"/><path class="cls-1" d="M118.61,112H117a1,1,0,0,1,0-2h1.58a1,1,0,0,1,0,2Z"/><path class="cls-1" d="M96.5,94.44l-25.83-21V63.07a1.27,1.27,0,1,0-2.54,0V73.36L42.22,94.44a.85.85,0,0,0-.27.62v70a.85.85,0,0,0,.85.85H92.37c.47,0,4.4-.38,4.4-.85v-70A.85.85,0,0,0,96.5,94.44ZM68.22,87.05a1.27,1.27,0,0,0,2.37,0,3.89,3.89,0,1,1-2.37,0Zm26.86,77.16H43.65V95.43L68.13,75.69V85.3a5.59,5.59,0,1,0,2.54,0V75.77l24.4,19.65Z"/><circle class="cls-1" cx="139.25" cy="177.45" r="2.45" transform="translate(-1.37 1.08) rotate(-0.44)"/><circle class="cls-1" cx="156.88" cy="177.32" r="2.45" transform="translate(-1.37 1.22) rotate(-0.44)"/><path class="cls-1" d="M147.81,119.06a38,38,0,1,0,38,38A38,38,0,0,0,147.81,119.06ZM152,131.34l.13,16.87,3.16,0-6.14,9.53-6.29-9.43,3.16,0-.13-16.87ZM134.2,143.07l9.6-.07,0,2.8-9.6.07a1.4,1.4,0,0,1,0-2.8Zm5.09,39.65a5.25,5.25,0,1,1,5.21-5.29A5.26,5.26,0,0,1,139.29,182.72Zm17.62-.14a5.25,5.25,0,1,1,5.21-5.29A5.26,5.26,0,0,1,156.92,182.58Zm13.52-38-5.52,17.67a1.39,1.39,0,0,1-1.32,1l-27.52.21c.29,1,.51,1.84.63,2.29.54,2,1.59,2,1.61,2l22.11-.18a5.07,5.07,0,0,1,4.86,3.38,1.4,1.4,0,0,1-.87,1.77,1.35,1.35,0,0,1-.44.08,1.41,1.41,0,0,1-1.33-.94,2.31,2.31,0,0,0-2.19-1.49l-22,.17s-3.29.24-4.45-4.08c-.76-2.8-5.28-19.29-6.47-23.61l-5.46,0a1.4,1.4,0,1,1,0-2.79l6.53-.05a1.41,1.41,0,0,1,1.36,1l5.37,19.58,27.23-.21,4.64-14.86-12.81.1,0-2.8,14.74-.11a1.39,1.39,0,0,1,1.34,1.81Z"/><path class="cls-1" d="M183.68,146.91V67.08h-4v75.34A30.9,30.9,0,0,1,183.68,146.91Z"/><path class="cls-1" d="M134.81,182.62H19.88V67.08h-4v119.8h122A31.35,31.35,0,0,1,134.81,182.62Z"/><rect class="cls-1" x="98.66" y="18.93" width="1.97" height="35.39"/><rect class="cls-1" x="53.12" y="35.66" width="35.39" height="1.97" transform="translate(28.85 104.44) rotate(-85.6)"/><rect class="cls-1" x="24.94" y="35.49" width="35.39" height="1.97" transform="translate(-1.41 71.23) rotate(-78.82)"/><rect class="cls-1" x="127.34" y="18.95" width="1.97" height="35.39" transform="translate(-2.43 9.94) rotate(-4.4)"/><rect class="cls-1" x="155.52" y="18.78" width="1.97" height="35.39" transform="translate(-4.1 31.05) rotate(-11.18)"/><path class="cls-1" d="M179.43,16.47H20.58V5H179.43ZM23.53,13.52h153V7.95h-153Z"/></svg>