<?xml version="1.0" standalone="no"?>
<!DOCTYPE svg PUBLIC "-//W3C//DTD SVG 20010904//EN"
 "http://www.w3.org/TR/2001/REC-SVG-20010904/DTD/svg10.dtd">
<svg version="1.0" xmlns="http://www.w3.org/2000/svg"
 width="128.000000pt" height="112.000000pt" viewBox="0 0 128.000000 112.000000"
 preserveAspectRatio="xMidYMid meet">

<g transform="translate(0.000000,112.000000) scale(0.100000,-0.100000)"
fill="#000000" stroke="none">
<path d="M486 1098 c-9 -12 -16 -28 -16 -34 0 -7 -72 -56 -159 -110 -130 -80
-156 -100 -144 -109 34 -25 -9 -81 -45 -58 -17 10 -21 3 -47 -67 -20 -56 -35
-81 -52 -89 -13 -6 -23 -16 -23 -22 0 -8 7 -6 18 4 39 36 86 12 80 -40 -2 -20
-11 -30 -32 -38 -24 -8 -31 -6 -47 14 -10 13 -19 19 -19 14 0 -6 9 -18 20 -28
11 -10 20 -27 20 -38 0 -11 18 -39 39 -62 29 -31 38 -49 34 -64 -12 -47 52
-95 96 -72 36 20 160 -23 224 -77 15 -14 17 -13 17 6 0 12 8 26 18 32 16 11
16 11 -2 6 -11 -4 -39 6 -70 23 -28 16 -72 35 -98 41 -40 10 -48 16 -48 35 0
12 -6 28 -14 34 -13 11 -11 19 11 56 25 40 30 43 77 48 l51 5 106 -111 c106
-112 107 -112 82 -125 -13 -7 -34 -10 -46 -7 -19 5 -20 5 -4 -5 9 -6 17 -20
17 -31 0 -18 2 -18 23 -5 55 35 60 33 133 -63 63 -84 69 -88 82 -70 19 28 68
25 87 -5 17 -26 8 -69 -17 -79 -9 -4 -9 -6 -1 -6 6 -1 18 7 25 18 7 10 35 23
63 29 28 6 65 17 83 25 29 12 31 15 18 26 -13 11 -24 10 -63 -3 -60 -21 -86
-20 -106 2 -16 17 -14 26 25 142 33 99 39 127 29 141 -16 27 -14 57 7 68 9 6
13 11 8 11 -5 0 -17 -7 -27 -16 -27 -24 -86 -35 -100 -18 -6 8 -16 14 -22 14
-6 0 -1 -10 11 -23 44 -46 14 -117 -48 -117 -63 0 -94 77 -48 120 12 11 17 20
10 20 -20 0 -45 -48 -40 -78 3 -20 -2 -33 -18 -45 -21 -15 -24 -13 -132 102
l-111 118 6 42 c5 33 1 48 -16 71 l-21 29 32 66 33 66 122 -3 c93 -2 123 0
123 10 0 9 -30 12 -115 12 -63 0 -115 2 -115 5 0 3 15 36 34 74 32 63 38 69
73 75 36 6 40 4 86 -46 31 -35 45 -58 42 -69 -4 -11 8 -4 28 16 48 48 95 49
143 1 38 -38 45 -33 13 8 l-20 26 23 43 c16 29 31 43 48 45 14 2 29 8 34 12
13 13 62 -18 92 -58 23 -29 24 -35 13 -67 -12 -32 -16 -34 -68 -40 -96 -10
-101 -12 -100 -43 2 -23 2 -24 6 -4 2 12 12 22 21 23 9 0 43 4 75 8 53 7 58 5
72 -16 9 -13 20 -23 25 -23 6 0 1 9 -10 20 -31 31 -20 100 15 100 8 0 15 5 15
11 0 18 -67 96 -98 115 -15 8 -35 29 -44 45 -10 16 -25 29 -35 28 -15 0 -14
-2 4 -9 47 -19 36 -90 -15 -90 -53 0 -72 55 -30 84 12 9 17 16 11 16 -7 0 -14
-4 -17 -9 -8 -12 -294 -12 -301 0 -4 5 -10 9 -15 9 -5 0 2 -11 15 -25 14 -13
25 -28 25 -34 0 -6 12 -6 32 0 18 5 72 9 119 9 83 0 87 -1 104 -27 18 -26 17
-28 -8 -72 -23 -42 -28 -45 -61 -43 -19 2 -43 -1 -54 -7 -17 -9 -28 -1 -81 53
-33 36 -61 60 -61 56 0 -18 -33 -40 -59 -40 -34 0 -61 28 -61 61 0 29 8 42 35
57 17 10 17 11 3 12 -9 0 -24 -10 -32 -22z m-41 -178 l-45 -90 -108 0 -107 1
55 34 c30 19 93 59 140 89 47 30 91 55 98 55 7 1 -6 -36 -33 -89z m-117 -106
l61 -7 -30 -58 c-24 -49 -34 -59 -55 -59 -28 0 -84 -49 -84 -74 0 -24 -101
-22 -122 2 -14 15 -13 23 9 84 19 50 31 68 48 72 13 3 27 15 30 26 7 22 35 25
143 14z m47 -159 c54 -53 16 -145 -60 -145 -49 0 -85 36 -85 85 0 49 36 85 85
85 25 0 44 -8 60 -25z m-137 -115 l23 -30 -23 -39 c-18 -32 -29 -40 -58 -44
-29 -4 -41 1 -67 26 -45 42 -50 65 -22 85 35 25 50 31 90 31 28 1 40 -5 57
-29z m-16 -137 c38 -35 9 -103 -44 -103 -24 0 -58 35 -58 60 0 26 34 60 62 60
12 0 30 -7 40 -17z m682 -21 c3 -5 -13 -65 -36 -135 -39 -117 -44 -126 -70
-129 -25 -4 -34 4 -89 76 -56 73 -60 81 -44 92 12 9 33 11 61 7 37 -5 46 -2
68 20 14 14 26 35 26 46 0 12 8 21 23 24 39 8 56 7 61 -1z"/>
<path d="M296 593 c-6 -14 -5 -15 5 -6 7 7 10 15 7 18 -3 3 -9 -2 -12 -12z"/>
<path d="M326 595 c-3 -8 -1 -15 4 -15 6 0 10 7 10 15 0 8 -2 15 -4 15 -2 0
-6 -7 -10 -15z"/>
<path d="M152 375 c-7 -9 -8 -15 -2 -15 5 0 10 -7 10 -15 0 -9 9 -15 25 -15
18 0 23 4 19 15 -4 9 -1 15 7 15 8 0 5 6 -7 15 -24 18 -36 18 -52 0z m38 -25
c0 -5 -4 -10 -10 -10 -5 0 -10 5 -10 10 0 6 5 10 10 10 6 0 10 -4 10 -10z"/>
<path d="M1158 914 c12 -8 22 -23 23 -32 0 -11 2 -13 6 -4 6 14 -24 52 -41 52
-6 0 0 -7 12 -16z"/>
<path d="M105 849 c-11 -17 1 -21 15 -4 8 9 8 15 2 15 -6 0 -14 -5 -17 -11z"/>
<path d="M1181 848 c-1 -10 -10 -23 -20 -30 -19 -12 -19 -12 0 -26 45 -31 85
-156 74 -230 -4 -30 -11 -42 -23 -43 -14 0 -13 -2 3 -8 22 -9 49 -37 59 -61 3
-8 3 -4 0 10 -4 14 -6 39 -6 55 0 17 1 58 2 91 1 64 -18 126 -53 177 -10 15
-23 40 -27 55 -5 16 -9 20 -9 10z"/>
<path d="M1105 788 c-3 -7 -15 -44 -28 -83 -32 -96 -49 -97 -133 -14 -40 40
-61 67 -57 78 3 12 1 11 -7 -2 -7 -10 -26 -27 -43 -38 -18 -10 -27 -19 -22
-19 6 0 17 5 25 10 19 12 80 -44 81 -74 0 -12 3 -15 6 -8 9 22 53 -27 53 -59
0 -27 31 -60 55 -59 5 1 -2 8 -17 16 -46 24 -33 84 19 84 12 0 26 -6 30 -14 5
-9 8 1 9 27 1 23 13 70 27 105 14 34 21 62 16 62 -5 0 -12 -6 -14 -12z"/>
<path d="M680 782 c0 -17 55 -72 72 -72 7 1 1 7 -14 16 -15 8 -34 27 -42 42
-9 15 -15 21 -16 14z"/>
<path d="M778 763 c7 -3 16 -2 19 1 4 3 -2 6 -13 5 -11 0 -14 -3 -6 -6z"/>
<path d="M706 667 c3 -10 9 -15 12 -12 3 3 0 11 -7 18 -10 9 -11 8 -5 -6z"/>
<path d="M800 590 c6 -11 13 -20 16 -20 2 0 0 9 -6 20 -6 11 -13 20 -16 20 -2
0 0 -9 6 -20z"/>
<path d="M461 584 c0 -11 3 -14 6 -6 3 7 2 16 -1 19 -3 4 -6 -2 -5 -13z"/>
<path d="M1025 580 c-10 -11 -13 -20 -8 -20 13 0 38 29 31 35 -3 3 -13 -4 -23
-15z"/>
<path d="M640 585 c0 -7 30 -13 34 -7 3 4 -4 9 -15 9 -10 1 -19 0 -19 -2z"/>
<path d="M1062 548 c-9 -9 -6 -18 14 -39 22 -23 24 -30 15 -48 -10 -17 -21
-21 -61 -21 -27 0 -52 5 -55 10 -3 6 -11 10 -17 10 -6 0 -4 -8 5 -18 10 -10
17 -24 17 -30 0 -8 20 -12 55 -12 51 0 55 2 55 24 0 27 34 74 64 87 19 9 19 9
-4 5 -17 -4 -32 2 -50 19 -20 19 -29 22 -38 13z"/>
<path d="M795 520 c3 -5 8 -10 11 -10 2 0 4 5 4 10 0 6 -5 10 -11 10 -5 0 -7
-4 -4 -10z"/>
<path d="M728 443 c6 -2 18 -2 25 0 6 3 1 5 -13 5 -14 0 -19 -2 -12 -5z"/>
<path d="M1130 407 c0 -20 4 -37 10 -37 5 0 7 14 3 33 -8 45 -13 47 -13 4z"/>
<path d="M691 368 c2 -31 2 -31 6 -5 4 24 8 27 43 27 35 0 39 -3 43 -27 4 -26
4 -26 6 5 l1 32 -50 0 -50 0 1 -32z"/>
<path d="M1270 391 c0 -6 -12 -23 -26 -37 -14 -15 -20 -24 -13 -22 18 6 54 56
46 65 -4 3 -7 1 -7 -6z"/>
<path d="M957 378 c-17 -12 -15 -19 23 -113 22 -55 38 -106 35 -114 -4 -11 -3
-11 9 -2 8 7 25 11 38 9 27 -4 36 -40 16 -66 -12 -15 -11 -16 5 -3 9 7 17 22
17 33 0 11 13 37 30 58 27 34 80 129 80 144 0 3 -14 6 -31 6 -20 0 -40 10 -60
29 -16 16 -29 26 -29 21 0 -11 58 -60 71 -60 14 0 -26 -74 -63 -115 -17 -20
-34 -32 -39 -28 -8 9 -67 153 -78 191 -5 20 -9 21 -24 10z"/>
<path d="M457 189 c7 -7 15 -10 18 -7 3 3 -2 9 -12 12 -14 6 -15 5 -6 -5z"/>
<path d="M510 190 c-9 -6 -10 -10 -3 -10 6 0 15 5 18 10 8 12 4 12 -15 0z"/>
<path d="M750 43 c0 -13 27 -49 33 -43 3 3 -3 16 -14 29 -10 13 -19 19 -19 14z"/>
</g>
</svg>
