<?xml version="1.0" encoding="utf-8"?>
<!-- Generator: Adobe Illustrator 19.0.0, SVG Export Plug-In . SVG Version: 6.00 Build 0)  -->
<svg version="1.1" id="Слой_1" xmlns="http://www.w3.org/2000/svg" xmlns:xlink="http://www.w3.org/1999/xlink" x="0px" y="0px"
	 viewBox="0 0 368.5 260.8" style="enable-background:new 0 0 368.5 260.8;" xml:space="preserve">
<style type="text/css">
	.st0{fill:#FFFFFF;}
	.st1{fill:#D90000;}
	.st2{fill-rule:evenodd;clip-rule:evenodd;fill:#D90000;}
</style>
<g>
	<path class="st0" d="M189.8,23.7h-30c-14.9,0-14.9-21.9,0-21.9h81c15.2,0,15.2,21.9,0,21.9h-28.4v86.5c0,14.9-22.6,15.2-22.6,0
		V23.7z"/>
</g>
<g>
	<path class="st0" d="M303.6,23.7h-30c-14.9,0-14.9-21.9,0-21.9h81c15.2,0,15.2,21.9,0,21.9h-28.4v86.5c0,14.9-22.6,15.2-22.6,0
		V23.7z"/>
</g>
<g>
	<path class="st1" d="M118.5,220.7l23.3-64.3c4.7-12.7,23.6-6.7,18.9,6.9l-30.9,83.9c-2.8,8.9-5.5,11.6-10.8,11.6
		c-5.6,0-7.3-3.4-10.5-9.1l-27.2-61.7l-25.9,60.8C52.6,255.2,50,259,44.3,259c-5.5,0-8.3-3.7-10.8-10.6L3.3,163.2
		c-4.7-14.1,15.1-19.2,19.2-6.9l23.1,64.3l27.6-64.3c3.7-9.5,13.6-10,17.6-0.5L118.5,220.7z"/>
	<path class="st1" d="M185.1,258c-5.5,0-9.7-4.2-9.7-9.7v-88.7c0-5.6,4.2-9.7,9.7-9.7h56.1c14.4,0,14.1,20.3,0,20.3h-45v23.4h39.4
		c13.9,0,13.9,20.5,0,20.5h-39.4v23.4h47.6c14.2,0,15.3,20.5,0,20.5H185.1z"/>
	<path class="st1" d="M280.9,258c-5.6,0-9.5-4.2-9.5-9.7v-88.7c0-5.6,3.9-9.7,9.5-9.7h43.9c20.5,0,31.5,13.9,31.5,29.8
		c0,7-2,13.9-8.6,19.7c12.3,4.8,17.8,14.4,17.8,25.9c0,18-12.2,32.6-35.6,32.6H280.9z M324.8,169h-33v23.3h33
		c6.7,0,10.9-4.2,10.9-12.5C335.8,174.7,331.5,169,324.8,169z M291.9,239H330c18.1,0,18.1-27.6,0-27.6c-11.9,0-25.8,0-38.1,0V239z"
		/>
</g>
<path class="st2" d="M123.9,2L35.2,121.6l20.2,0.4L125.5,2H123.9z M92.8,98.6h32.8V122H84.3L92.8,98.6z M2.6,98.6h22.9L2.9,122H2.6
	V98.6z M100.9,76.3h24.7v18.8H94L100.9,76.3z M2.6,76.3h44.6L28.9,95.2H2.6V76.3z M107.8,57.3h17.7v15.6h-23.4L107.8,57.3z
	 M2.6,57.3h63.1L50.6,72.9h-48V57.3z M114.1,40h11.5v13.8H109L114.1,40z M2.6,40h80L69.1,53.8H2.6V40z M119.7,24.5h5.8v12h-10.2
	L119.7,24.5z M2.6,24.5h95L86,36.5H2.6V24.5z M124.3,11.9h1.3V21h-4.6L124.3,11.9z M2.6,11.9h107.2L101,21H2.6V11.9z M125.5,8.4
	L125.5,8.4L125.5,8.4L125.5,8.4z M2.6,1.8h117.1l-6.4,6.6H2.6V1.8z"/>
</svg>
