<?xml version="1.0" standalone="no"?>
<!DOCTYPE svg PUBLIC "-//W3C//DTD SVG 20010904//EN"
 "http://www.w3.org/TR/2001/REC-SVG-20010904/DTD/svg10.dtd">
<svg version="1.0" xmlns="http://www.w3.org/2000/svg"
 width="416.000000pt" height="364.000000pt" viewBox="0 0 416.000000 364.000000"
 preserveAspectRatio="xMidYMid meet">

<g transform="translate(0.000000,364.000000) scale(0.100000,-0.100000)"
fill="#000000" stroke="none">
<path d="M1689 3625 c-78 -25 -149 -120 -149 -200 0 -16 -107 -87 -497 -330
-477 -297 -500 -310 -542 -307 -60 3 -105 -13 -134 -48 -33 -38 -41 -90 -23
-134 14 -34 13 -38 -82 -281 l-96 -246 -53 -25 c-60 -29 -88 -63 -102 -123
-17 -78 12 -143 86 -193 38 -26 40 -30 53 -110 l13 -84 124 -134 c86 -93 121
-139 117 -150 -14 -31 -16 -119 -4 -155 17 -52 64 -101 115 -121 64 -24 152
-16 197 18 l35 27 169 -43 c169 -43 169 -43 348 -147 133 -77 180 -109 187
-128 29 -82 67 -111 143 -111 66 0 108 27 134 88 20 47 21 47 144 100 68 28
128 52 133 51 6 0 107 -128 225 -284 215 -284 215 -284 212 -330 -6 -86 33
-162 98 -195 46 -23 126 -26 173 -6 36 14 97 79 97 101 0 21 8 24 150 45 98
15 163 33 260 69 94 35 132 45 145 38 10 -5 40 -7 67 -5 85 9 145 93 121 172
-10 33 -8 36 57 107 97 107 200 268 255 402 46 110 49 115 86 126 64 19 134
83 169 154 27 55 31 75 31 141 0 77 -17 132 -66 206 -16 24 -16 34 13 175 l30
150 -19 152 c-26 206 -79 346 -198 521 -83 120 -83 121 -71 157 20 59 9 146
-24 194 -34 48 -112 91 -170 92 -41 0 -42 2 -155 147 -112 144 -117 148 -220
212 -84 52 -107 71 -114 95 -19 64 -37 94 -71 120 -65 50 -163 44 -224 -13
l-29 -28 -222 10 c-169 7 -273 6 -442 -5 l-220 -14 -22 23 c-55 59 -156 83
-238 57z m1121 -182 c0 -33 23 -84 49 -107 11 -11 21 -24 21 -30 0 -8 -165
-323 -174 -333 -2 -2 -24 4 -50 13 -71 24 -187 15 -258 -19 l-55 -27 -155 158
c-223 225 -220 221 -207 267 6 21 9 51 7 67 -4 27 -3 28 41 29 25 0 118 6 206
12 110 8 224 9 367 3 l208 -9 0 -24z m410 -140 c86 -52 101 -67 196 -187 97
-123 102 -131 84 -143 -34 -24 -70 -97 -72 -146 l-2 -45 -116 -12 c-63 -7
-184 -20 -267 -29 -141 -16 -153 -16 -153 -1 0 45 -69 147 -134 197 l-28 23
88 165 89 166 42 -6 c56 -8 114 9 149 44 16 16 30 29 30 30 1 0 44 -25 94 -56z
m-1478 4 c-2 -12 7 -17 35 -19 37 -3 37 -3 -9 -8 -47 -5 -48 -5 -48 23 0 19 4
27 13 24 6 -2 11 -11 9 -20z m-161 -19 c10 -13 18 -29 19 -36 0 -6 -63 -138
-140 -292 l-140 -280 -359 0 c-282 0 -360 3 -364 13 -3 8 168 121 477 314 264
165 483 301 484 302 2 1 12 -9 23 -21z m669 -391 l22 -27 -31 -62 c-17 -33
-31 -71 -31 -84 0 -57 21 -54 -401 -54 -214 0 -389 2 -389 5 0 3 59 122 130
265 l130 260 53 -6 c58 -7 124 7 157 34 22 18 23 16 180 -143 87 -88 168 -172
180 -188z m1258 -37 c-7 -10 -14 -17 -17 -15 -4 4 18 35 25 35 2 0 -1 -9 -8
-20z m-710 -194 c2 -113 -1 -151 -10 -158 -22 -13 -462 -10 -476 4 -13 13 -18
289 -5 302 4 3 115 5 247 4 l241 -3 3 -149z m717 124 l20 -25 -22 19 c-13 11
-23 24 -23 29 0 6 1 8 3 6 1 -2 11 -15 22 -29z m-75 -64 c15 -46 89 -113 133
-121 l35 -7 -97 -284 -96 -284 -45 6 c-25 3 -57 1 -71 -4 -25 -10 -37 1 -242
206 l-217 217 25 50 c16 31 28 78 33 125 l7 75 235 26 c313 35 286 36 300 -5z
m170 30 c0 -2 -8 -10 -17 -17 -16 -13 -17 -12 -4 4 13 16 21 21 21 13z m-40
-21 c0 -8 -4 -15 -10 -15 -5 0 -7 7 -4 15 4 8 8 15 10 15 2 0 4 -7 4 -15z
m-2370 -294 l-109 -220 -34 6 c-56 9 -140 -15 -198 -55 -61 -43 -119 -139
-119 -198 l0 -34 -192 0 -193 0 -20 37 c-11 21 -34 47 -50 58 l-31 19 91 233
90 232 38 1 c68 0 127 53 127 114 l0 26 355 0 355 0 -110 -219z m1004 187 c3
-13 6 -32 6 -43 0 -11 13 -47 29 -80 35 -76 111 -146 189 -175 81 -31 205 -25
279 13 28 15 55 32 59 38 4 7 91 -73 225 -207 180 -180 216 -221 208 -235 -14
-27 -11 -97 7 -135 28 -58 68 -79 152 -79 l73 -1 79 -79 79 -78 -19 -27 c-11
-15 -25 -47 -31 -72 l-12 -45 -120 -7 c-207 -11 -224 -9 -242 18 -21 32 -74
56 -123 56 -48 0 -101 -33 -122 -76 -14 -30 -19 -32 -158 -59 l-143 -28 -32
35 c-159 174 -449 51 -423 -180 3 -31 7 -67 9 -78 1 -16 -16 -36 -68 -78 -38
-31 -73 -56 -77 -56 -3 0 -175 178 -382 395 l-376 395 23 43 c34 66 36 180 5
249 -25 54 -67 106 -103 126 -19 10 -15 22 95 241 l115 231 396 0 397 0 6 -22z
m1635 -107 c107 -158 158 -293 180 -473 17 -137 17 -137 -7 -260 -13 -68 -25
-124 -26 -125 -1 -1 -24 5 -51 13 -70 22 -170 14 -234 -18 l-50 -24 -80 80
-80 81 11 43 c13 53 0 107 -38 152 l-26 30 94 282 94 282 55 14 c30 7 58 18
64 23 5 5 11 9 15 9 3 0 38 -49 79 -109z m-2709 -419 c6 -4 -81 -81 -92 -82
-5 0 -8 14 -8 31 0 29 -2 31 -27 24 -47 -11 -90 -44 -107 -79 -56 -118 44
-244 172 -215 44 10 100 66 109 109 4 23 11 30 29 30 31 0 31 -22 2 -80 -33
-63 -86 -102 -147 -108 -74 -7 -118 5 -161 44 -124 112 -74 305 89 346 34 9
41 15 41 35 0 25 0 25 48 -13 26 -21 49 -40 52 -42z m2170 -176 l25 -30 -31
25 c-17 13 -29 28 -27 32 3 5 6 7 7 5 0 -2 12 -16 26 -32z m-3120 14 l-65 -7
73 -1 72 -2 0 -55 0 -55 -84 0 c-94 0 -96 1 -96 88 l0 42 83 -2 82 -1 -65 -7z
m581 -127 c7 -22 35 -60 65 -90 l54 -52 -93 -154 c-81 -135 -95 -153 -112
-146 -34 13 -123 10 -164 -7 l-39 -16 -75 79 c-134 142 -149 162 -158 206 -14
75 -12 85 27 103 34 16 84 76 84 101 0 10 45 13 199 13 l199 0 13 -37z m2664
-13 c4 -8 -8 -2 -24 14 -17 17 -31 31 -31 33 0 9 50 -34 55 -47z m-1487 -879
c1 -3 -49 -28 -110 -54 -89 -37 -115 -44 -123 -34 -5 7 -21 21 -35 30 -46 32
-163 15 -187 -27 -6 -11 -47 9 -183 88 -172 99 -177 102 -335 142 l-160 41 -2
57 c-3 76 -17 116 -53 151 -17 16 -30 32 -30 36 0 4 42 77 93 161 l92 153 40
-13 c58 -20 162 -11 216 19 l43 24 366 -383 c201 -211 366 -387 368 -391z
m1899 681 c20 -13 34 -65 28 -103 l-6 -37 44 10 c66 14 128 7 141 -16 9 -14 7
-20 -5 -29 -15 -10 -15 -12 5 -29 l21 -18 -22 -19 c-18 -15 -20 -20 -8 -25 20
-7 19 -35 0 -43 -14 -5 -14 -7 0 -23 16 -17 15 -20 -11 -37 -23 -15 -49 -18
-145 -18 -65 0 -121 4 -126 8 -4 5 -10 55 -11 111 -4 97 -2 105 22 141 18 26
26 51 26 80 0 53 14 68 47 47z m-716 -189 c13 -16 12 -17 -3 -4 -17 13 -22 21
-14 21 2 0 10 -8 17 -17z m-107 -44 c-3 -5 -10 -7 -15 -3 -5 3 -7 10 -3 15 3
5 10 7 15 3 5 -3 7 -10 3 -15z m86 0 c0 -5 -4 -9 -10 -9 -5 0 -10 7 -10 16 0
8 5 12 10 9 6 -3 10 -10 10 -16z m437 -81 c16 -58 63 -129 108 -164 21 -16 66
-38 101 -49 l62 -20 -35 -85 c-41 -99 -158 -278 -241 -369 -55 -59 -61 -63
-87 -54 -26 8 -39 35 -162 348 l-133 340 22 42 23 42 75 4 c41 1 116 4 165 5
l91 2 11 -42z m-552 -8 c10 -11 16 -20 13 -20 -3 0 -13 9 -23 20 -10 11 -16
20 -13 20 3 0 13 -9 23 -20z m-65 0 c0 -6 11 -22 26 -36 l25 -26 -69 -206
c-39 -114 -102 -302 -141 -417 l-72 -210 -59 -1 c-37 -1 -68 -7 -84 -17 -14
-10 -30 -17 -35 -17 -8 0 -421 533 -421 543 0 3 36 32 79 66 66 50 81 58 91
47 17 -22 98 -46 149 -46 89 0 183 64 218 148 8 18 15 55 16 82 l2 50 50 10
c28 5 79 16 115 24 81 17 110 19 110 6z m-380 -80 l0 -70 -121 0 c-138 0 -141
3 -63 62 43 33 136 75 172 77 8 1 12 -19 12 -69z m526 -4 c1 0 61 -151 133
-334 l131 -334 -23 -31 c-13 -20 -24 -52 -27 -86 l-5 -54 -105 -40 c-68 -25
-147 -46 -225 -58 -65 -10 -120 -17 -120 -16 -1 1 -13 21 -26 45 -13 24 -38
52 -57 64 -18 11 -31 25 -29 32 2 6 66 194 142 419 l138 407 36 -6 c20 -4 37
-7 37 -8z m-2323 -73 c-7 -3 -13 -16 -13 -29 0 -17 -6 -24 -20 -24 -15 0 -20
7 -20 25 0 16 -6 25 -16 25 -12 0 -11 6 8 29 l23 29 25 -25 c17 -17 21 -27 13
-30z m784 -415 c-2 -24 -4 -7 -4 37 0 44 2 63 4 43 2 -21 2 -57 0 -80z m133
37 l0 -75 -55 0 -55 0 0 75 0 75 55 0 55 0 0 -75z m1727 -271 c-3 -3 -12 -4
-19 -1 -8 3 -5 6 6 6 11 1 17 -2 13 -5z m100 0 c-3 -3 -12 -4 -19 -1 -8 3 -5
6 6 6 11 1 17 -2 13 -5z m-77 -49 c-18 -19 -36 -32 -39 -30 -6 7 50 65 63 65
5 0 -5 -16 -24 -35z m25 -35 c-21 -22 -41 -37 -44 -35 -2 3 13 23 34 45 21 22
41 37 44 35 2 -3 -13 -23 -34 -45z m35 -13 c0 -2 -10 -12 -22 -23 l-23 -19 19
23 c18 21 26 27 26 19z m-89 -34 c13 -16 12 -17 -3 -4 -17 13 -22 21 -14 21 2
0 10 -8 17 -17z m99 13 c0 -2 -8 -10 -17 -17 -16 -13 -17 -12 -4 4 13 16 21
21 21 13z m-760 -166 c0 -73 -3 -90 -15 -90 -12 0 -15 17 -15 90 0 73 3 90 15
90 12 0 15 -17 15 -90z m-60 -10 c0 -64 -3 -80 -15 -80 -12 0 -15 16 -15 80 0
64 3 80 15 80 12 0 15 -16 15 -80z m-50 -10 c0 -56 -3 -70 -15 -70 -12 0 -15
14 -15 70 0 56 3 70 15 70 12 0 15 -14 15 -70z m-60 -10 c0 -47 -3 -60 -15
-60 -12 0 -15 13 -15 60 0 47 3 60 15 60 12 0 15 -13 15 -60z"/>
<path d="M2330 2665 l0 -135 225 0 225 0 0 135 0 135 -225 0 -225 0 0 -135z"/>
<path d="M1458 2183 c34 -2 90 -2 125 0 34 2 6 3 -63 3 -69 0 -97 -1 -62 -3z"/>
<path d="M1768 2183 c34 -2 90 -2 125 0 34 2 6 3 -63 3 -69 0 -97 -1 -62 -3z"/>
<path d="M2403 2182 c-9 -5 -6 -12 10 -21 20 -13 21 -13 9 2 -13 15 -4 17 100
20 l113 3 -110 2 c-60 1 -115 -2 -122 -6z"/>
<path d="M2724 2182 c-8 -5 -3 -14 15 -26 l26 -20 -19 22 -18 21 113 4 114 3
-110 2 c-60 1 -115 -2 -121 -6z"/>
<path d="M1654 2150 c0 -13 4 -16 10 -10 7 7 7 13 0 20 -6 6 -10 3 -10 -10z"/>
<path d="M1966 2143 c-6 -14 -5 -15 5 -6 7 7 10 15 7 18 -3 3 -9 -2 -12 -12z"/>
<path d="M2410 1955 c-7 -9 -19 -14 -26 -11 -8 3 -11 0 -7 -10 7 -19 16 -18
30 6 11 16 26 20 100 23 l88 3 -86 2 c-68 2 -89 -1 -99 -13z"/>
<path d="M2788 1963 c23 -2 61 -2 85 0 23 2 4 4 -43 4 -47 0 -66 -2 -42 -4z"/>
<path d="M1807 1943 c-13 -16 -14 -20 -1 -37 8 -11 14 -15 14 -9 0 7 -5 15
-11 18 -7 5 -4 14 7 26 9 10 15 19 12 19 -3 0 -12 -8 -21 -17z"/>
<path d="M1456 1937 c3 -10 9 -15 12 -12 3 3 0 11 -7 18 -10 9 -11 8 -5 -6z"/>
<path d="M2706 1934 c-20 -19 -20 -20 2 -20 10 0 18 8 18 18 0 22 -1 22 -20 2z"/>
<path d="M2924 1930 c0 -13 4 -16 10 -10 7 7 7 13 0 20 -6 6 -10 3 -10 -10z"/>
<path d="M1491 1913 c7 -12 15 -20 18 -17 3 2 -3 12 -13 22 -17 16 -18 16 -5
-5z"/>
<path d="M2261 1913 c7 -12 15 -20 18 -17 3 2 -3 12 -13 22 -17 16 -18 16 -5
-5z"/>
<path d="M2120 1906 c0 -2 8 -10 18 -17 15 -13 16 -12 3 4 -13 16 -21 21 -21
13z"/>
<path d="M2818 1903 c-49 -2 -88 -7 -88 -11 0 -10 163 -2 175 9 5 5 7 8 5 7
-3 -1 -44 -4 -92 -5z"/>
<path d="M2458 1893 c23 -2 61 -2 85 0 23 2 4 4 -43 4 -47 0 -66 -2 -42 -4z"/>
<path d="M2061 1763 c-1 -7 -12 -13 -25 -13 -13 0 -30 -8 -37 -17 -11 -15 -11
-16 1 -5 9 7 44 12 95 12 51 0 86 -5 95 -12 12 -11 12 -10 1 5 -10 12 -28 17
-66 17 -33 0 -55 5 -58 13 -4 10 -6 10 -6 0z"/>
<path d="M2433 1743 c26 -2 67 -2 90 0 23 2 2 3 -48 3 -49 0 -68 -1 -42 -3z"/>
<path d="M2785 1743 c67 -3 83 -7 98 -24 9 -12 17 -17 17 -12 0 6 -8 17 -18
26 -15 13 -36 17 -98 15 l-79 -2 80 -3z"/>
<path d="M2354 1718 l-19 -23 23 19 c21 18 27 26 19 26 -2 0 -12 -10 -23 -22z"/>
<path d="M2669 1713 c-13 -16 -12 -17 4 -4 16 13 21 21 13 21 -2 0 -10 -8 -17
-17z"/>
<path d="M1400 1696 c0 -2 8 -10 18 -17 15 -13 16 -12 3 4 -13 16 -21 21 -21
13z"/>
<path d="M1582 774 c-31 -21 -29 -61 3 -76 22 -10 28 -8 45 10 25 27 26 58 1
72 -25 13 -22 13 -49 -6z"/>
</g>
</svg>
