<?xml version="1.0" encoding="utf-8"?>
<!-- Generator: Adobe Illustrator 19.0.0, SVG Export Plug-In . SVG Version: 6.00 Build 0)  -->
<svg version="1.1" id="Layer_1" xmlns="http://www.w3.org/2000/svg" xmlns:xlink="http://www.w3.org/1999/xlink" x="0px" y="0px"
	 viewBox="-41 164.9 512 512" style="enable-background:new -41 164.9 512 512;" xml:space="preserve">
<style type="text/css">
	.st0{fill:#FFFFFF;}
</style>
<g>
	<path class="st0" d="M450,288.9l-0.1-0.6c-11.9-48-65.4-99.5-114.5-110.2l-0.6-0.1c-79.5-15.2-160.1-15.2-239.5,0l-0.6,0.1
		C45.5,188.8-8,240.3-19.9,288.3l-0.1,0.6c-14.7,67-14.7,135,0,202l0.1,0.6C-8.5,537.4,41,586.5,88.4,600v53.6
		c0,19.4,23.6,28.9,37.1,14.9l54.3-56.4c11.8,0.7,23.5,1,35.3,1c40,0,80-3.8,119.8-11.4l0.6-0.1c49.1-10.7,102.7-62.2,114.5-110.2
		l0.1-0.6C464.7,423.8,464.7,355.9,450,288.9z M407,481.1c-7.9,31.3-48.6,70.2-80.8,77.4c-42.3,8-84.9,11.5-127.4,10.3
		c-0.8,0-1.7,0.3-2.2,0.9c-6,6.2-39.6,40.7-39.6,40.7l-42.1,43.3c-3.1,3.2-8.5,1-8.5-3.4v-88.7c0-1.5-1-2.7-2.5-3c0,0,0,0,0,0
		c-32.3-7.2-72.9-46.1-80.8-77.4c-13.2-60.6-13.2-122,0-182.5c7.9-31.3,48.6-70.2,80.8-77.4c73.8-14,148.6-14,222.4,0
		c32.3,7.2,72.9,46.1,80.8,77.4C420.3,359.2,420.3,420.6,407,481.1z"/>
	<path class="st0" d="M285.2,522.1c-5-1.5-9.7-2.5-14.1-4.3c-45.5-18.9-87.4-43.2-120.6-80.6c-18.9-21.2-33.6-45.2-46.1-70.6
		c-5.9-12-10.9-24.5-16-37c-4.6-11.3,2.2-23,9.4-31.6c6.7-8,15.4-14.1,24.8-18.7c7.3-3.5,14.6-1.5,19.9,4.7
		c11.6,13.5,22.2,27.6,30.9,43.2c5.3,9.6,3.8,21.3-5.8,27.8c-2.3,1.6-4.5,3.4-6.6,5.2c-1.9,1.6-3.7,3.2-5,5.3
		c-2.4,3.9-2.5,8.5-1,12.7c11.8,32.6,31.8,57.9,64.6,71.5c5.2,2.2,10.5,4.7,16.6,4c10.1-1.2,13.4-12.3,20.5-18.1
		c6.9-5.7,15.8-5.7,23.2-1c7.5,4.7,14.7,9.8,21.9,14.9c7.1,5,14.1,10,20.6,15.7c6.3,5.5,8.4,12.8,4.9,20.2
		c-6.5,13.7-15.9,25.1-29.4,32.4C294.1,520.1,289.5,520.8,285.2,522.1C280.3,520.6,289.5,520.8,285.2,522.1z"/>
	<path class="st0" d="M215.1,263.7c59.5,1.7,108.4,41.2,118.9,100c1.8,10,2.4,20.3,3.2,30.5c0.3,4.3-2.1,8.3-6.7,8.4
		c-4.8,0.1-6.9-3.9-7.2-8.2c-0.6-8.5-1-17-2.2-25.4c-6.2-44.4-41.5-81-85.7-88.9c-6.6-1.2-13.4-1.5-20.2-2.2
		c-4.3-0.4-9.8-0.7-10.8-6c-0.8-4.4,3-8,7.2-8.2C212.8,263.7,214,263.7,215.1,263.7C274.7,265.4,214,263.7,215.1,263.7z"/>
	<path class="st0" d="M305.6,381c-0.1,0.7-0.1,2.5-0.6,4.1c-1.6,6-10.6,6.7-12.7,0.7c-0.6-1.8-0.7-3.8-0.7-5.8
		c0-12.6-2.8-25.2-9.1-36.2c-6.5-11.3-16.5-20.8-28.2-26.5c-7.1-3.5-14.7-5.6-22.5-6.9c-3.4-0.6-6.8-0.9-10.2-1.4
		c-4.1-0.6-6.3-3.2-6.1-7.3c0.2-3.8,3-6.6,7.1-6.3c13.7,0.8,26.9,3.7,39,10.2c24.7,13.1,38.8,33.7,42.9,61.3
		c0.2,1.3,0.5,2.5,0.6,3.7C305.2,373.8,305.4,376.9,305.6,381C305.5,381.8,305.4,376.9,305.6,381z"/>
	<path class="st0" d="M268.6,379.6c-5,0.1-7.6-2.7-8.2-7.2c-0.4-3.2-0.6-6.4-1.4-9.5c-1.5-6.1-4.7-11.8-9.9-15.5
		c-2.4-1.8-5.2-3.1-8-3.9c-3.7-1.1-7.4-0.8-11.1-1.7c-4-1-6.1-4.2-5.5-7.9c0.6-3.4,3.9-6,7.5-5.7c23.1,1.7,39.6,13.6,41.9,40.8
		c0.2,1.9,0.4,3.9-0.1,5.8C273.2,377.8,270.8,379.4,268.6,379.6C263.6,379.7,270.8,379.4,268.6,379.6z"/>
</g>
<path class="st0" d="M285.2,522.1C289.5,520.8,280.3,520.6,285.2,522.1L285.2,522.1z"/>
<g>
	<path class="st0" d="M215.3,263.7c-0.1,0-0.1,0-0.1,0C215.1,263.7,215.1,263.7,215.3,263.7z"/>
	<path class="st0" d="M215.1,263.7c0.1,0,0.1,0,0.1,0C218.6,263.8,272.3,265.3,215.1,263.7z"/>
</g>
<g>
	<path class="st0" d="M305.6,381C305.4,376.9,305.5,381.8,305.6,381L305.6,381z"/>
	<path class="st0" d="M268.6,379.6c0.1,0,0.2,0,0.2-0.1c-0.2,0-0.5,0-0.9,0C268.1,379.5,268.3,379.6,268.6,379.6z"/>
	<path class="st0" d="M268.6,379.6c-0.2,0-0.4,0-0.6,0C266.9,379.6,265.7,379.6,268.6,379.6z"/>
	<path class="st0" d="M268.8,379.5c-0.1,0-0.2,0-0.2,0.1C269.2,379.5,269.1,379.5,268.8,379.5z"/>
</g>
</svg>
